<?xml version="1.0" encoding="UTF-8"?>
<svg id="Layer_2" data-name="Layer 2" xmlns="http://www.w3.org/2000/svg" xmlns:xlink="http://www.w3.org/1999/xlink" viewBox="0 0 165.61 100.5">
  <defs>
    <style>
      .cls-1 {
        fill: url(#linear-gradient);
      }

      .cls-1, .cls-2, .cls-3, .cls-4, .cls-5, .cls-6, .cls-7, .cls-8, .cls-9 {
        stroke-width: 0px;
      }

      .cls-2 {
        fill: url(#linear-gradient-2);
      }

      .cls-3 {
        fill: #795b3c;
      }

      .cls-4 {
        fill: #784b2d;
      }

      .cls-5 {
        fill: #592b25;
      }

      .cls-6 {
        fill: #a96d3c;
      }

      .cls-7 {
        fill: #dbc075;
      }

      .cls-8 {
        fill: #b18649;
      }

      .cls-9 {
        fill: #b9ab39;
      }
    </style>
    <linearGradient id="linear-gradient" x1="65.01" y1="706.11" x2="47.15" y2="649.55" gradientTransform="translate(0 752.45) scale(1 -1)" gradientUnits="userSpaceOnUse">
      <stop offset="0" stop-color="#a5ddd1"/>
      <stop offset=".46" stop-color="#3fa0a1"/>
      <stop offset="1" stop-color="#1b4c5d"/>
    </linearGradient>
    <linearGradient id="linear-gradient-2" x1="117.29" y1="730.16" x2="84.14" y2="671.84" gradientTransform="translate(0 752.45) scale(1 -1)" gradientUnits="userSpaceOnUse">
      <stop offset="0" stop-color="#f2f2d2"/>
      <stop offset=".59" stop-color="#68bbb7"/>
      <stop offset="1" stop-color="#236f7b"/>
    </linearGradient>
  </defs>
  <g id="Layer_1-2" data-name="Layer 1">
    <g id="Cloud">
      <g>
        <g>
          <path class="cls-7" d="M150.81,48.22c2.1,1.2,5.2,4.3,7.1,5.9.8,1.5,2.3,3.1,3.4,4.3,1.1,4.1,4.4,7.7,4.3,15.5-.1,7-4,15.3-9.3,19.9-.7.6-2.1,1.7-2.8,2.2-1.7,1.1-3.4,1.6-5.3,2.2l-.6-.6c6.2-1.7,11.8-7,14.3-12.9,4-9.7,3-19.2-3.7-27.3-4.8-5.9-15.7-13.4-23.1-9.2,4.7-13.5-6.3-29.2-20.7-28.3v-1.9c14.2-.6,25.8,13,23.4,27,4.6,0,9.1,1,13,3.2Z"/>
          <path class="cls-9" d="M147.71,97.62l.6.6c-2.5.8-2.6,1.2-2.8,1.2-.5.1-1.3-.1-1.9,0-3.3.5-4.9.2-7.8.3-4.6.1-9.3,0-14,0-24,.2-48-.1-72,0-5.4,0-10.8-.2-16.1.3-4-.1-7.8-.4-11.8,0-.7.1-1.6-.5-2.2-.6-.2,0-.4-.2-.9-.3q.5-.5.9-.9c6.1.7,67.4,0,80.4,0,9.6,0,37.4.7,41.8.3,1.8-.1,4-.4,5.8-.9Z"/>
          <path class="cls-4" d="M59.51,3.52c-17.9,5.4-31.2,25.2-22.4,43.2-2.1-1.1-6-2.4-8.4-2.5,0-.6-.7-.1-.9-.5-.1-.1.7-.1.6-.5,1.7.1,3.3.5,5,.8.5-1-4.1-8.8,1.6-21.6,2.9-6.6,8.7-12.7,14.9-16.5-1.6,3.1,4.6-2.4,9.6-2.4Z"/>
          <g>
            <path class="cls-1" d="M53.91,40.42c8.3-.9,12.3,5.3,12.7,12.7-1.4,2.9,1.8-.9,5.3-.9,7.8-.1,7.9,7.8,8.5,8.1,10.5-.2,9.5,9.7,10.2,9.9,1.4-.9,5,.3,6.2,1.2,4,3.1,1.9,10.5,4.8,5.9,1.2.7,3.4.7,5,3.6,3.5,6.2-.8,14.3-7,16.9q.2.2.5.3c-13.1,0-74.3.7-80.4,0-8.3-.9-16.6-7.5-18.9-15.5-1.8-6-.7-11.6,4.3-15.5q.3-.1.6-.2c-.8-13,10.1-23.5,23-22.8,2.4.1,6.3,1.3,8.4,2.5,1,.6,2.3,1.4,3.3,2.2,5.5,4.3,4.7,8.3,4.8,2.8.1-5.5,2.4-10.5,8.7-11.2Z"/>
            <path class="cls-3" d="M28.41,43.22c.1.4-.7.3-.6.5.2.3.9-.1.9.5-12.9-.7-23.8,9.8-23,22.8q-.3.1-.6.2c-.7-4.1-.3-7,1.2-10.9.2-.4.4-.8.6-1.2.9-1.8,3.2-4.9,4.7-6.2,2.2-2,6.4-4.2,9.3-5,2.7-.7,4.8-.8,7.5-.7Z"/>
            <path class="cls-7" d="M101.71,77.42c-2.9,4.6-.8-2.8-4.8-5.9-1.2-1-4.8-2.1-6.2-1.2-.8-.2.2-10.2-10.2-9.9-.6-.3-.7-8.2-8.5-8.1v-1.6c5.2-.1,9.3,2.8,9.3,8.2.6.6,8.9-.4,10.2,9.3,4.8-.2,9.2,4.1,9.3,9,.2.4.7.1.9.2Z"/>
            <path class="cls-7" d="M67.51,51.62c-.2,1.1-.9,1.5-.9,1.6-.4-7.4-4.5-13.6-12.7-12.7q-.2-.6-.3-1.2c10-1.1,14.6,7.6,13.9,12.3Z"/>
            <path class="cls-4" d="M53.61,39.22q.2.6.3,1.2c-6.2.6-8.6,5.6-8.7,11.2-.9.4-.8-4.6-.6-5.4.7-3.8,5.4-6.7,9-7Z"/>
            <path class="cls-8" d="M71.91,50.72v1.6c-3.5.1-6.7,3.8-5.3.9,0-.1.8-.4.9-1.6,2.2-1.1,2.9-.9,4.4-.9Z"/>
          </g>
          <g>
            <path class="cls-2" d="M102.91,23.02c1.3,8.2-1.9,2.4,5.9-1.6,1.9-1,3.4-1.4,5.6-1.6,14.4-.9,25.3,14.8,20.7,28.3,7.5-4.2,18.3,3.3,23.1,9.2,6.7,8.2,7.8,17.6,3.7,27.3-2.5,5.9-8.1,11.2-14.3,12.9-1.8.5-3.9.8-5.7.9-4.4.4-32.2-.3-41.8-.3q-.2-.2-.5-.3c6.2-2.6,10.5-10.7,7-16.9-1.6-2.8-3.7-2.9-5-3.6-.2-.1-.7.2-.9-.2-.1-4.9-4.5-9.2-9.3-9-1.3-9.7-9.6-8.7-10.2-9.3,0-5.5-4.1-8.4-9.3-8.2-1.5,0-2.2-.2-4.3.9.6-4.7-3.9-13.4-14-12.4-3.6.4-8.3,3.2-9,7-.2.9-.3,5.8.6,5.4-.1,5.5.7,1.5-4.8-2.8-.9-.7-2.2-1.6-3.3-2.2C28.31,28.52,41.51,8.72,59.51,3.32c19.1-5.5,41,4.1,43.4,19.7Z"/>
            <path class="cls-8" d="M114.41,18.12v1.9c-2.2.1-3.7.6-5.6,1.6.1-1.5-1.3-1.1.3-2.2,1.9-.7,3.3-1.2,5.3-1.3Z"/>
            <path class="cls-6" d="M109.21,19.32c-1.6,1-.2.7-.3,2.2-7.8,3.9-4.6,9.7-5.9,1.6.7.1,1.3-1.4,1.9-1.9,1.1-1,2.8-1.4,4.3-1.9Z"/>
          </g>
        </g>
        <g>
          <path class="cls-7" d="M88.01,3.22c7.4,3.2,15.3,9.7,16.8,18-.6.4-1.2,2-1.9,1.9-2.5-15.7-24.4-25.3-43.5-19.6-4.9.1-11.1,5.5-9.6,2.5,11.3-6.8,26.2-8,38.2-2.8Z"/>
          <g>
            <path class="cls-7" d="M19.71,98.22q-.5.5-.9.9c-3.7-.9-5.8-1.9-9.3-3.4-.5-1-2.7-2-4-3.7-1.7-2.2-5.3-6.9-4.7-9.3,2.4,8,10.6,14.6,18.9,15.5Z"/>
            <path class="cls-5" d="M121.91,99.82q-.6.3-1.2.6h-4.3c-20.6-.4-41.2.3-61.8,0-1.2,0-2.8.1-3.7,0-.1,0-.9-.4-.9-.6,23.9-.1,47.9.2,71.9,0Z"/>
          </g>
        </g>
      </g>
    </g>
  </g>
</svg>