<?xml version="1.0" encoding="UTF-8"?>
<svg id="Layer_2" data-name="Layer 2" xmlns="http://www.w3.org/2000/svg" xmlns:xlink="http://www.w3.org/1999/xlink" viewBox="0 0 2038.56 710.8">
  <defs>
    <style>
      .cls-1 {
        fill: url(#linear-gradient);
      }

      .cls-1, .cls-2, .cls-3, .cls-4, .cls-5, .cls-6, .cls-7, .cls-8, .cls-9, .cls-10, .cls-11, .cls-12, .cls-13, .cls-14, .cls-15, .cls-16, .cls-17, .cls-18, .cls-19, .cls-20, .cls-21, .cls-22, .cls-23, .cls-24, .cls-25, .cls-26, .cls-27, .cls-28 {
        stroke-width: 0px;
      }

      .cls-2 {
        fill: url(#linear-gradient-2);
      }

      .cls-3 {
        fill: url(#linear-gradient-3);
      }

      .cls-4 {
        fill: #4b494d;
      }

      .cls-5 {
        fill: #716c72;
      }

      .cls-6 {
        fill: #615d62;
      }

      .cls-7 {
        fill: #817983;
      }

      .cls-8 {
        fill: #512c44;
      }

      .cls-9 {
        fill: #4f5971;
      }

      .cls-10 {
        fill: #573334;
      }

      .cls-11 {
        fill: #292629;
      }

      .cls-12 {
        fill: #39393a;
      }

      .cls-13 {
        fill: #3c2734;
      }

      .cls-14 {
        fill: #151515;
      }

      .cls-15 {
        fill: #08262f;
      }

      .cls-16 {
        fill: #1e637e;
      }

      .cls-17 {
        fill: #dad9dc;
      }

      .cls-18 {
        fill: #c0bfc0;
      }

      .cls-19 {
        fill: #aa6638;
      }

      .cls-20 {
        fill: #aa688b;
      }

      .cls-21 {
        fill: #89bfca;
      }

      .cls-22 {
        fill: #b5afb5;
      }

      .cls-23 {
        fill: #8e5437;
      }

      .cls-24 {
        fill: #9d5a7e;
      }

      .cls-25 {
        fill: #854667;
      }

      .cls-26 {
        fill: #938a95;
      }

      .cls-27 {
        fill: #744435;
      }

      .cls-28 {
        fill: #6b3653;
      }
    </style>
    <linearGradient id="linear-gradient" x1="1007.6" y1="338.69" x2="788" y2="181.39" gradientTransform="translate(0 422.61) scale(1 -1)" gradientUnits="userSpaceOnUse">
      <stop offset="0" stop-color="#73b1be"/>
      <stop offset=".6" stop-color="#3699ae"/>
      <stop offset="1" stop-color="#013240"/>
    </linearGradient>
    <linearGradient id="linear-gradient-2" x1="1569.35" y1="313.64" x2="1429.13" y2="138.48" gradientTransform="translate(0 422.61) scale(1 -1)" gradientUnits="userSpaceOnUse">
      <stop offset="0" stop-color="#4c9bb0"/>
      <stop offset="1" stop-color="#172e42"/>
    </linearGradient>
    <linearGradient id="linear-gradient-3" x1="1221.49" y1="262.31" x2="1178.1" y2="188.76" gradientTransform="translate(0 422.61) scale(1 -1)" gradientUnits="userSpaceOnUse">
      <stop offset="0" stop-color="#7c899d"/>
      <stop offset="1" stop-color="#3e475e"/>
    </linearGradient>
  </defs>
  <g id="Layer_1-2" data-name="Layer 1">
    <g id="Ocean">
      <g>
        <g>
          <path class="cls-1" d="M752.1,12.9c18.8,12.5,150.7,105.8,161.1,105,7.2,32.2,33.5,27.8,58.7,37.2,24.5,9.1,48.5,19.4,72.6,29.1,47.3,19,93.7,39.5,141.2,58.2-25.5,3.9-50.1,10.7-75.6,14.5-26,1.5-45.9-9.1-97.5-6.5q-125.8-49.3-251.7-98.5c-23.9-31.9-81.9-45.9-113.4-66.2-23-14.9-15.7-17-16.9-17.8Q681.8,34,733.1,0c2.7-.2,15.5,10.6,19,12.9Z"/>
          <g>
            <path class="cls-14" d="M939.1,260.1c-.3.8-3.7,3.2-4,3.2-19.6,2.8-91.4-19-206.9,0-21.8,3.6-49,11.4-71.6,16.2-23.3,4.9-46.3,11.1-69.6,16.2-28.6,6.2-56.9,13.3-85.5,19.4-21.9,4.7-43.7,10.2-65.6,14.5-22.9,4.6-44.9,11-68.6,12.9-60.2-2.4-120.8-5.1-181-4.8-17.4.1-40.6,6.2-59.7,6.5-29.9-10.5-72.6,3.4-100.5-6.5,50-26.2,95.5-57.8,135.3-93.7,14.3-6.7,55.1-42.6,72.6-54.9,30.9-21.8,64.5-41.3,95.5-63,35.3-24.7,69.2-51.1,104.4-75.9,9.7-6.8,60-43.5,63.7-45.2,4.1,21.8,5.5,45.5-11.9,63.8q26.9,14.5,53.7,29.1-18.4,1.2-36.8,2.4c142.3,58.5,289,110.3,436.5,159.8Z"/>
            <path class="cls-21" d="M630.8,67.9c1.2.7-6.1,2.9,16.9,17.8,31.4,20.3,89.5,34.3,113.4,66.2q125.8,49.3,251.7,98.5c-21.1,1.1-62.1,10.8-73.6,9.7-147.5-49.5-294.2-101.3-436.7-159.9q18.4-1.2,36.8-2.4-26.9-14.5-53.7-29.1c17.4-18.4,16-42,11.9-63.8.4-.2.6-4.3,9-3.2,38.4,25.2,85,42,124.3,66.2Z"/>
          </g>
          <g>
            <path class="cls-8" d="M587,295.6c-4,9,48.7,3.1,72.6,3.2,117.9.6,236.2,7.2,354.1,9.7,46.3,1,93-.9,139.3,0,36.1.7,118.8,6.8,127.3,6.5,5.9-.2,4.4-.7,7-4.8,11.9,4.5,33,10.2,29.8,13.7-128.9,9.9-259.4-.2-388.9,2.4-98.1-1.9-196.4-6.4-294.4-8.1-41.4-.7-84.3,3.2-125.3,1.6-.5,0-8.7-2.2-7-4.8,28.5-6.1,56.9-13.2,85.5-19.4Z"/>
            <path class="cls-28" d="M656.6,279.5q.5,2.4,1,4.8,231.8,4,463.5,8.1c36.9,4.2,74.3,4.7,111.4,6.5,1,0,16,6.3,16.9-1.6.4.1,2.6.4,6,1.6,10.6,3.6,21.4,7.4,31.8,11.3-2.6,4.2-1,4.6-7,4.8-8.5.3-91.2-5.8-127.3-6.5-46.3-.9-93,1-139.3,0-117.9-2.5-236.2-9.1-354.1-9.7-23.9-.1-76.6,5.8-72.6-3.2,23.4-5,46.4-11.2,69.7-16.1Z"/>
            <path class="cls-25" d="M1177.8,279.5c8.5,2,26.2,7.2,31.8,4.8,13.4,4,26.6,8.5,39.8,12.9-.9,8-15.9,1.7-16.9,1.6-37.1-1.8-74.5-2.3-111.4-6.5q-231.8-4-463.5-8.1-.5-2.4-1-4.8c22.6-4.8,49.8-12.6,71.6-16.2,113.8,10.3,230.4,6.7,345.2,11.3,17.8.7,36.2,3.8,53.7,4.8,18.3,1.1,20.8-1.7,21.9-1.6,1.6.3,7.1,6.4,28.8,1.8Z"/>
            <path class="cls-24" d="M935.1,263.3q-.5,1.6-1,3.2,112.4,3.2,224.8,6.5c6.3.7,17.5,6.1,18.9,6.5-21.8,4.6-27.3-1.5-28.8-1.6-1.1-.1-3.6,2.7-21.9,1.6-17.5-1.1-36-4.1-53.7-4.8-114.8-4.7-231.4-1-345.2-11.3,115.5-19,187.4,2.7,206.9-.1Z"/>
            <path class="cls-20" d="M1012.7,250.4c51.6-2.7,71.5,7.9,97.5,6.5,0,1.1-.6,2.8,1,3.2,9.5,2.7,39.5,7.8,64.7,14.5,11.3,3,22.6,6.4,33.8,9.7-5.7,2.4-23.3-2.8-31.8-4.8-1.4-.3-12.6-5.8-18.9-6.5q-112.4-3.2-224.8-6.5.5-1.6,1-3.2c.3,0,3.7-2.5,4-3.2,11.4,1.1,52.4-8.6,73.5-9.7Z"/>
          </g>
          <path class="cls-2" d="M1573.7,130.9c9.1,6.6,26.5,9.2,35.8,12.9,19.6,7.9,38.5,17.2,58.7,24.2,7.3,2.5,20.3,3.7,28.8,6.5,3.6,1.2,12.7,1,18.9,3.2q44.3,28.3,88.5,56.5c-15.6-5-41.5-9.1-58.7-12.9-26.7-61.9-140.3-8.6-191,9.7-59.5-5.7-120-10.4-180-9.7-31.4-19.2-69.6-44.3-110.4-43.6-20.9-19.2-41.5-21.3-60.7-30.7l192-126q89.1,54.9,178.1,109.9Z"/>
          <g>
            <path class="cls-14" d="M1804.5,234.3c5.6,1.8,11.2,3.4,16.9,4.8,18.4,8.6,22.3,33,80.6,74.3,16.6,11.7,34.2,21.6,51.7,32.3q-53.2-1.6-106.4-3.2c-51.3-12.4-31.2-14.3-39.8-21-.8-.6-13.4-3.6-20.9-6.5-9.6-3.7-20-6.4-29.8-9.7-17.7-5.9-35.8-10.7-53.7-16.2-22.6-6.8-44.6-13.6-67.6-19.4-11.1-2.8-22.7-7.3-33.8-9.7-105.5-22.9-147.3-13.3-250.7-4.8-23.9,2-47.8,4-71.6,6.5-14.6,1.5-29.2,3.2-43.8,4.8-19.9,2.2-40.3,3.4-59.7,8.1-25.1-6.7-55.1-11.8-64.7-14.5-1.6-.4-1-2.2-1-3.2,25.5-3.8,50.1-10.6,75.6-14.5,63.1-9.7,124.3-20.3,189-21,60.1-.7,120.5,4,180,9.7,50.7-18.3,164.3-71.5,191-9.7,17.2,3.7,43,7.9,58.7,12.9Z"/>
            <g>
              <path class="cls-13" d="M1756.7,305.3c9.9,3.3,20.2,5.9,29.8,9.7,1,3.8-1,5.2-5,6.5-9.2,2.9-119.5,10.9-137.3,11.3-75.9,1.8-184.4-6.6-264.6-4.8-49.3-10.7-58.2,1.5-31.8-1.6-3.2,7,20.1,4.7,11.9,11.3-6.7,5.5-77.7,1-91.5,4.8-273.9-.2-547.7-3.1-821.6-6.5q-5.5-3.2-10.9-6.5c22-4.4,43.7-9.8,65.6-14.5-1.8,2.6,6.5,4.8,7,4.8,41,1.6,83.9-2.3,125.3-1.6,98.1,1.7,196.3,6.2,294.4,8.1,129.5-2.6,260,7.5,388.9-2.4,3.1-3.6-18-9.2-29.8-13.7-10.4-3.9-21.2-7.7-31.8-11.3,8.5-9.3,41.4,5.4,65.6,4l-3-2.4q8,.8,15.9,1.6-4,1.6-8,3.2c62.4-2.8,124.7,2.6,187,3.2,66.9.7,134.1-2.5,200.9-1.6,13.2.2,33.9,7.2,43-1.6Z"/>
              <path class="cls-10" d="M1235.5,266.6c.2,1.4-.8,4.2,1,4.8,5.5,2.1,106.9,10.4,121.4,11.3,88,5.3,176.6,2,264.6,4.8,26.7.9,68.4,9.8,80.6,1.6,17.9,5.4,36,10.2,53.7,16.2-9.2,8.8-29.8,1.8-42.8,1.6-66.8-.8-134,2.3-200.9,1.6-62.3-.7-124.6-6-187-3.2q4-1.6,8-3.2-8-.8-15.9-1.6l3,2.4c-24.3,1.4-57.1-13.3-65.6-4-3.4-1.2-5.5-1.5-6-1.6-13.2-4.5-26.4-9-39.8-12.9-11.2-3.3-22.5-6.7-33.8-9.7,19.3-4.7,39.6-5.9,59.5-8.1Z"/>
              <path class="cls-27" d="M1279.3,261.7c12.3,1.1,16,4.7,16.9,4.8,66.1,7.3,227.9,9.9,300.4,9.7,16.9,0,25.1,7.8,38.8-6.5,23,5.8,45.1,12.6,67.6,19.4-12.2,8.2-53.9-.7-80.6-1.6-88-2.9-176.6.4-264.6-4.8-14.4-.9-115.8-9.2-121.4-11.3-1.8-.7-.8-3.4-1-4.8,14.7-1.6,29.3-3.4,43.9-4.9Z"/>
              <path class="cls-19" d="M1601.6,260.1c-2.5,8.6-22.8,11.4-20.9,1.6-15.7,12.5-80.2-.4-117.4,3.2-1.5,0-.5-3.2-2-3.2-21.9-.7-45.2,2.8-67.6,1.6-12.6-.6-38.9-2.2-42.8-8.1,103.3-8.4,145.1-18,250.7,4.9Z"/>
              <path class="cls-23" d="M1350.9,255.3c3.9,5.9,30.2,7.4,42.8,8.1,22.4,1.1,45.7-2.3,67.6-1.6,1.5,0,.5,3.2,2,3.2,37.1-3.6,101.7,9.2,117.4-3.2-1.9,9.8,18.4,7,20.9-1.6,11.2,2.4,22.7,6.9,33.8,9.7-13.7,14.2-21.9,6.4-38.8,6.5-72.5.2-234.3-2.4-300.4-9.7-.9-.1-4.6-3.7-16.9-4.8,23.8-2.6,47.7-4.7,71.6-6.6Z"/>
            </g>
          </g>
          <g>
            <path class="cls-3" d="M1203.7,147c19.1,9.4,39.8,11.5,60.7,30.7,40.8-.7,79,24.4,110.4,43.6-64.6.7-125.9,11.3-189,21-47.5-18.6-94-39.1-141.2-58.2-2.1-6.9-11.6-10.6-17.9-14.5,9.9.9,32.6-6,42.8-9.7,2-.7.6-4.7,1-4.8,2.2-.8,4.3,2.9,10.9,0,11.2-5,65.1-40.1,69.6-40.4,20.6,7.3,33.8,23,52.7,32.3Z"/>
            <g>
              <path class="cls-15" d="M1026.6,169.6c6.3,3.9,15.8,7.7,17.9,14.5-24.2-9.7-48.1-20-72.6-29.1-25.2-9.4-51.4-4.9-58.7-37.2q25.9-15.3,51.7-30.7c21.8,21,36.1,46.9,43.8,73.5,5.7,6.4,16.4,8.1,17.9,9Z"/>
              <path class="cls-16" d="M1070.4,155.1c-.4.2,1,4.1-1,4.8-10.2,3.7-32.9,10.6-42.8,9.7-1.6-1-12.3-2.7-17.9-8.9-7.7-26.6-22-52.5-43.8-73.5q2.5-.8,5-1.6,50.3,34.8,100.5,69.5Z"/>
            </g>
          </g>
          <g>
            <path class="cls-9" d="M1697.1,174.5c-8.6-2.7-21.6-3.9-28.8-6.5-20.1-7-39.1-16.4-58.7-24.2q4-17.8,8-35.5,2.5-.8,5-1.6c28.4,19.8,54.6,41.7,74.5,67.8Z"/>
            <path class="cls-14" d="M1609.5,143.8c-9.3-3.8-26.7-6.3-35.8-12.9q21.9-11.3,43.8-22.6-4,17.7-8,35.5Z"/>
          </g>
        </g>
        <g>
          <path class="cls-18" d="M2037.2,462c-.1,34.3,3.1,232,0,243.9q-946.4-.8-1892.9-1.6c-28.7,4.2-63.2-.6-90.5,6.5H.1C0,628.4.3,546,.1,463.6q1018.6-.7,2037.1-1.6Z"/>
          <g>
            <path class="cls-11" d="M1953.7,345.7c7.1,4.3,14.6,8.7,21.9,12.9H.2v-9.7c2.4.4,4.1-.7,6-1.6,6.5-3.2,13.6-6.4,19.9-9.7,27.9,9.9,70.5-4,100.5,6.5,19.1-.3,42.3-6.4,59.7-6.5,60.2-.3,120.9,2.4,181,4.8,23.8-1.9,45.7-8.4,68.6-12.9q5.5,3.2,10.9,6.5c273.9,3.3,547.7,6.3,821.6,6.5,13.8-3.9,84.8.6,91.5-4.8,8.1-6.7-15.1-4.3-11.9-11.3-26.3,3.1-17.4-9.1,31.8,1.6,80.2-1.7,188.7,6.7,264.6,4.8,17.7-.4,128.1-8.4,137.3-11.3,4-1.3,5.9-2.7,5-6.5,7.5,2.9,20.1,5.8,20.9,6.5,8.5,6.7-11.5,8.6,39.8,21q53.1,1.6,106.3,3.2Z"/>
            <path class="cls-7" d="M2037.2,407.1v16.2c-679,3.2-1358.1-4-2037.1,3.2v-16.2c63.2-3.1,126.7-4.2,190-4.8,615.5-6.1,1231.6,3.4,1847.1,1.6Z"/>
            <path class="cls-6" d="M2025.3,387.7c3.9,2.7,7.7,5.6,11.9,8.1v4.8q-982.2-.8-1964.5-1.6-36.3,1.7-72.6,3.3v-16.2c567.3-2.5,1134.6-2.9,1701.9-3.2,80.6,0,215,6,288.5,1.6.8-.1,3.1-3.1,4-3.2,1-.1,1.3,9.5,14.9-3.2,5.3,3.2,10.7,6.1,15.9,9.6Z"/>
            <path class="cls-4" d="M1999.4,371.6c3.5,2.1,6.6,4.4,9.9,6.5-13.7,12.7-14,3.1-14.9,3.2-.9.1-3.1,3.2-4,3.2-73.5,4.4-207.8-1.7-288.5-1.6-567.3.3-1134.6.7-1701.9,3.2v-12.9c561.3-5,1122.7,1.5,1684-3.2,90.5,5.4,213.8-1.7,300.4,3.2,4.8.3,5.5,10.8,15-1.6Z"/>
            <path class="cls-12" d="M1975.6,358.7c7.7,4.5,16.1,8.3,23.9,12.9-9.5,12.5-10.2,1.9-14.9,1.6-86.6-4.9-209.9,2.2-300.4-3.2-561.3,4.8-1122.7-1.8-1684,3.2v-14.5h1975.4Z"/>
            <path class="cls-26" d="M2037.2,423.3v11.3c-679,4.7-1358.1-2.1-2037.1,3.2v-11.3c679-7.2,1358.1-.1,2037.1-3.2Z"/>
            <path class="cls-26" d="M2037.2,434.6v11.3c-679,4.3-1358.1.7-2037.1,1.6v-9.7c679-5.3,1358.1,1.5,2037.1-3.2Z"/>
            <path class="cls-22" d="M2037.2,452.4v9.7q-1018.5.8-2037.1,1.6v-8.1c679.1-4.8,1358.2,4.7,2037.1-3.2Z"/>
            <path class="cls-22" d="M2037.2,445.9v6.5c-678.9,7.9-1358.1-1.6-2037.1,3.2v-8.1c679.1-.9,1358.1,2.7,2037.1-1.6Z"/>
            <path class="cls-5" d="M2037.2,400.7v6.5c-615.5,1.8-1231.6-7.7-1847.1-1.6-63.3.6-126.8,1.8-190,4.8v-8.1q36.3-1.6,72.6-3.2,982.3.7,1964.5,1.6Z"/>
          </g>
          <path class="cls-17" d="M2037.2,706c-.4,1.5.2,3.3,0,4.8H53.8c27.3-7.1,61.8-2.2,90.5-6.5q946.5.9,1892.9,1.7Z"/>
        </g>
      </g>
    </g>
  </g>
</svg>