<?xml version="1.0" encoding="UTF-8"?>
<svg id="Layer_2" data-name="Layer 2" xmlns="http://www.w3.org/2000/svg" xmlns:xlink="http://www.w3.org/1999/xlink" viewBox="0 0 1027.86 369.36">
  <defs>
    <style>
      .cls-1 {
        fill: url(#linear-gradient);
      }

      .cls-1, .cls-2, .cls-3, .cls-4, .cls-5, .cls-6, .cls-7, .cls-8, .cls-9, .cls-10, .cls-11, .cls-12, .cls-13, .cls-14, .cls-15, .cls-16, .cls-17, .cls-18, .cls-19, .cls-20, .cls-21 {
        stroke-width: 0px;
      }

      .cls-2 {
        fill: url(#linear-gradient-4);
      }

      .cls-3 {
        fill: url(#linear-gradient-2);
      }

      .cls-4 {
        fill: url(#linear-gradient-3);
      }

      .cls-5 {
        fill: url(#linear-gradient-8);
      }

      .cls-6 {
        fill: url(#linear-gradient-7);
      }

      .cls-7 {
        fill: url(#linear-gradient-5);
      }

      .cls-8 {
        fill: url(#linear-gradient-6);
      }

      .cls-9 {
        fill: #5889ae;
      }

      .cls-10 {
        fill: #6e717c;
      }

      .cls-11 {
        fill: #86a3bd;
      }

      .cls-12 {
        fill: #a2aac4;
      }

      .cls-13 {
        fill: #322a32;
      }

      .cls-14 {
        fill: #417595;
      }

      .cls-15 {
        fill: #c3c7da;
      }

      .cls-16 {
        fill: #e2ddcd;
      }

      .cls-17 {
        fill: #e0e1c5;
      }

      .cls-18 {
        fill: #a5bad1;
      }

      .cls-19 {
        fill: #cedbea;
      }

      .cls-20 {
        fill: #e4deef;
      }

      .cls-21 {
        fill: #efe1a8;
      }
    </style>
    <linearGradient id="linear-gradient" x1="969.64" y1="-346.26" x2="955.48" y2="-400.75" gradientTransform="translate(0 -283.28) scale(1 -1)" gradientUnits="userSpaceOnUse">
      <stop offset="0" stop-color="#30a4b4"/>
      <stop offset="1" stop-color="#567b93"/>
    </linearGradient>
    <linearGradient id="linear-gradient-2" x1="789.57" y1="-318.04" x2="776.56" y2="-452.49" gradientTransform="translate(0 -283.28) scale(1 -1)" gradientUnits="userSpaceOnUse">
      <stop offset="0" stop-color="#46b3c7"/>
      <stop offset=".48" stop-color="#418496"/>
      <stop offset="1" stop-color="#060506"/>
    </linearGradient>
    <linearGradient id="linear-gradient-3" x1="520.51" y1="-310.68" x2="526.11" y2="-468.53" gradientTransform="translate(0 -283.28) scale(1 -1)" gradientUnits="userSpaceOnUse">
      <stop offset="0" stop-color="#44b1c5"/>
      <stop offset="1" stop-color="#080909"/>
    </linearGradient>
    <linearGradient id="linear-gradient-4" x1="234.89" y1="-309.07" x2="238.25" y2="-467.74" gradientTransform="translate(0 -283.28) scale(1 -1)" gradientUnits="userSpaceOnUse">
      <stop offset="0" stop-color="#48b4c6"/>
      <stop offset="1" stop-color="#09080a"/>
    </linearGradient>
    <linearGradient id="linear-gradient-5" x1="514.4" y1="-504.9" x2="513.83" y2="-640.48" gradientTransform="translate(0 -283.28) scale(1 -1)" gradientUnits="userSpaceOnUse">
      <stop offset="0" stop-color="#d4c3d7"/>
      <stop offset="1" stop-color="#493b47"/>
    </linearGradient>
    <linearGradient id="linear-gradient-6" x1="120.93" y1="-460.27" x2="120.37" y2="-510.83" gradientTransform="translate(0 -283.28) scale(1 -1)" gradientUnits="userSpaceOnUse">
      <stop offset="0" stop-color="#cecede"/>
      <stop offset="1" stop-color="#172939"/>
    </linearGradient>
    <linearGradient id="linear-gradient-7" x1="227.94" y1="-426.12" x2="227.54" y2="-483.35" gradientTransform="translate(0 -283.28) scale(1 -1)" gradientUnits="userSpaceOnUse">
      <stop offset="0" stop-color="#c4c7d8"/>
      <stop offset="1" stop-color="#15181e"/>
    </linearGradient>
    <linearGradient id="linear-gradient-8" x1="656.8" y1="-449.15" x2="659.16" y2="-517.94" gradientTransform="translate(0 -283.28) scale(1 -1)" gradientUnits="userSpaceOnUse">
      <stop offset="0" stop-color="#c9c9d8"/>
      <stop offset=".43" stop-color="#38748f"/>
      <stop offset="1" stop-color="#121418"/>
    </linearGradient>
  </defs>
  <g id="Layer_1-2" data-name="Layer 1">
    <g id="Mountain">
      <g>
        <path class="cls-13" d="M1027.37,365.56c-.2,1.2.1,2.6,0,3.8H.47c-.1-1.2.2-2.6,0-3.8h1026.9Z"/>
        <g>
          <path class="cls-21" d="M566.07,81.16q-6.3,3.8-12.5,7.6c-15.2-24.5-13.5-2.2-25.6-10.5-.8-2.5,2-5.6,4-7.6,11.5,3.4,22.4,7.9,34.1,10.5Z"/>
          <g>
            <path class="cls-1" d="M1027.37,56.36v92.6c-32.7-10.3-65.7-20.5-97.8-32.4-6.4-2.4-46.2-16.5-48.1-18.1-.9-.7-.5-1.5-.5-2.4,15.4,3.8,40.4-.5,42.6-11.9,14,7.5,8.8-7.5,26.1,2.9-3.8-26.3,9.6,5.5,14-13.4,11.4,8.7,9.3-6,27.1,4.8-1.6-21.5,9.9-4,12-5.7,3.6-2.8-9.3-16.2,10-4.8,4-24.6,4.4,2.9,14.6-11.6Z"/>
            <path class="cls-16" d="M1027.37,54.46v1.9c-10.2,14.5-10.6-13-14.5,11.5-19.3-11.5-6.5,2-10,4.8-2.2,1.7-13.6-15.7-12,5.7-17.8-10.8-15.7,3.9-27.1-4.8-4.4,18.8-17.8-12.9-14,13.4-17.3-10.4-12.1,4.7-26.1-2.9-2.2,11.5-27.2,15.7-42.6,11.9.1.9-.4,1.7.5,2.4,1.9,1.6,41.7,15.7,48.1,18.1,32.1,11.9,65.1,22.1,97.8,32.4v4.8c-62.4-18.5-123.3-41.5-183-66.8-5.3.1-3.3,13.7-20.6-11.5,3.1-.1,12,13.2,13.5,13.4,2.9.3,2.1-8.3,20.1,1.9,21.8.9,53.3,12.7,66.2-8.6,11.2,5.6,8.6-1.3,18.1-1,2.1.1,4.7,2.9,5,2.9.7-.2-2.9-10.6,5-10.5,2.5,0,5.6,4.7,6,4.8,2.8.2,1.6-10.7,13-2.9,10.1-8.2,17,.7,18.1,0,2.1-1.4-3.6-16.9,11-6.7-1.3-14.2,9-3.2,11.5-5.2,1-.9.2-8.2,2.5-9.1,3.4-1.1,5.4,9.1,13.5.1Z"/>
            <g>
              <path class="cls-3" d="M823.77,75.46c17.2,25.1,15.3,11.5,20.6,11.5,59.8,25.3,120.6,48.3,183,66.8v49.6c-4.2-.6-8,.6-12,1-15.9-4.5-32.2-7.2-48.1-11.5-60.6-16.2-46.7-20.9-56.7-27.7-16.3-10.9-43.6,6.8-62.2,6.7-20.2-4.6-40.6-8.5-60.7-13.4-31.1-7.5-81.2-22.3-111.8-32.4-10.3-3.4-80.5-28.2-84.2-30.5-11-6.8,21.3-2.3,14-8.6-1.5-1.3-18.2-.9-39.6-5.7-11.7-2.6-22.6-7.2-34.1-10.5,5.5-5.5,6.4-4.3,10.5,1.9,11.2-33.4,33.9-13.6,38.1-15.3,2.1-.8,1.9-7,4-7.6.5-.1,9,2.3,10,1.9,6.4-2.2-4.7-17.8,5-17.2,1.3.1,6.6,3.9,7,3.8,9.9-.8-3.7-13.8,5-21,7.1-5.9,17.3-1.5,22.1,4.8-3-41.7,52.3-13.5,15.5-2.4,4.9,4,13.2-1.6,20.6,2.4,8.8,4.7,1.9,13.7,11,11.5,10.5-2.6-8.3-18.2,3-20,3.7-.6,4.2,4.2,8,3.8,1.4-.2,21.2-12.8,23.6,1.4,1.4,8.4-16.7,10.9,6.5,10,13.4,10.8,3.4-4.1,11-2.9,3.8.6,7.2,8,8,11.5,12.6-14.2,24.6-1.3,21.6,4.3-.6,1.1-25.7,10.2-2.5,11,4.7,18.9,9.8,1.7,16,1.9.4,0,7.4,3.9,7.5,4.3.2.8-12.9,11.5-2.5,11.9,1.6.1,7.2-4.8,8-4.8.5,0,6.6,5.7,7,5.7,5.1,0-2.2-15.4,17,9.5,3.9-1.8,6.2-5.5,10.8-5.7Z"/>
              <path class="cls-17" d="M566.07,81.16c21.4,4.8,38.1,4.4,39.6,5.7,7.3,6.3-25,1.8-14,8.6,3.8,2.3,74,27.1,84.2,30.5,30.6,10.1,80.7,24.9,111.8,32.4-3.7,1.4-17.9-2.2-24.6-3.8-62.1-15.6-131.5-39.8-190-64.9-1.7-1-9-5.7-9.5-5.7-.7,0-8.4,7.4-11,6.7-.8-.2-8.5-13.2-10-13.4-.9-.1-13,11.7-15.5,1h1c12.1,8.3,10.3-14.1,25.6,10.5q6.1-3.7,12.4-7.6Z"/>
              <path class="cls-21" d="M730.07,36.36c6.2-1.6,11.6,5.1,6,8.6-9.2,5.6-12.8-6.8-6-8.6Z"/>
            </g>
          </g>
        </g>
        <g>
          <path class="cls-4" d="M526.97,78.36c2.6,10.7,14.6-1,15.5-1,1.5.1,9.2,13.1,10,13.4,2.7.8,10.3-6.7,11-6.7.6,0,7.8,4.8,9.5,5.7,9,4.9,17,9.4,26.6,13.4,64.7,26.9,175.4,59.4,245.7,68.7,1,.2-.3,1.6-1,1.9-2.2.9-42.5,9.8-47.1,10.5-11.4,1.8-23,2.3-34.6,2.9-94.4,4.7-116.3-29.4-135.4-34.4-36-9.3-107.8,16.2-147.4,25.8-17.9-4.3-36.3-7.1-54.2-11.5-5.7-1.4-11.4-3.3-17-4.8-70-17.9-137.8-42-205.6-66.3,8-5,11.7-12.6,12.5-12.9,2.2-.8,7.3,4.1,10,2.9,2-.9,1-6.9,2-7.6,1.4-1.1,8.3,4.9,9,4.8,1.4-.3,2.5-5.4,4-5.7,2-.5,8.4,6,10,4.8,3.2-2.6-6.1-13.7,12-1.9-.5-22.6,17.7-10.6,20.1-11.5.7-.3,3.5-8.3,5-8.6s8.5,5.8,9,5.7c4.1-.2,3.4-13.2,16-2.9,10.6-15.9,14.8,1.6,18.1,1.9,9.3,1-1-15.7,17.5-10,.4-19.3,14.1-4.8,14-13.4,0-2-18.3-13.7,8.5-17.7.6-.1,1.6,3.7,10.5-1.9,7.3,4.3,5.3,13.3,12.5,10.5,3.2-1.2-3-5.1,1.5-12.9,4.8-8.3,18.8-8.3,22.1-1,5.6,12.6-17.7,10.7-11.5,13.8,8.8,4.5,15.1-7.5,16-7.6s6.7,5.8,13-1c10.8,7.9-.2,6.6-.5,10-.9,8.5,16-1.8,16,5.7,0,2.1-19.3,12.4,6.5,5.2,14.9,18.2,8.4-9.2,22.6,8.1-16.7,16,3.9,8.1,6.5,9.1,1.5.6,2.2,8.7,7,9.5,8.5,1.5,1.1-4.7,4-6.7.2-.1,4.8.8,5,1,5.9,4.1-8.4,10.6,26.1,3.8q.8.7,1.5,1.4c.5.7-3.7,2.3-2.5,7.5Z"/>
          <path class="cls-16" d="M381.57,22.06c-8.9,5.6-9.9,1.8-10.5,1.9-26.8,3.9-8.5,15.6-8.5,17.7,0,8.6-13.6-5.9-14,13.4-18.6-5.7-8.2,11-17.5,10-3.2-.3-7.5-17.8-18.1-1.9-12.7-10.3-11.9,2.6-16,2.9-.5,0-7.5-6-9-5.7s-4.3,8.3-5,8.6c-2.3.9-20.6-11.1-20.1,11.5-18.1-11.8-8.8-.7-12,1.9-1.6,1.3-8-5.3-10-4.8-1.5.4-2.6,5.5-4,5.7-.7.1-7.6-5.9-9-4.8-1,.8,0,6.7-2,7.6-2.7,1.2-7.8-3.7-10-2.9-.9.3-4.5,7.9-12.5,12.9,67.8,24.3,135.6,48.4,205.6,66.3q-.5,1.4-1,2.9c-69.4-16.2-166.2-47.9-231.2-76.3-13.8-6.1-25.5-15.3-27.1-15.3-6.7,0-.3,18.3-21.1-10.5q-4.5,5.2-9,10.5c-.6,0-4.5-6.5-5.5-7.6,15.2,12.1,4.8-22.2,28.6,11.5,7.9-10.9,13.3.4,30.1,7.6,8.8,3.8,18.4,6.4,27.1,10.5,12.1-5.5,14.1-14.9,16-15.3,1.6-.3,7.6,4,8,3.8,1.6-.5,1-13.9,11-3.8,8.7-9.5,11.2,0,14-1.9.9-.6.1-11.6,11-1,7.6-25.4,18.5-1.9,28.1-19.1,13.8,9.8,11.8-1.3,16-1.9,2.2-.3,7.6,4.8,8,4.8.7,0,6.1-6.5,7-6.7,11-2.7,10.3,21.2,18.1-2.9,18.8,6.1,3.1-11.6,22.6-9.1-12.8-20.6,5.1-19.2,16.5-19.6.3,0,2.6-2.4,4-2.9,2-.3,1.3,1.9,1.4,2Z"/>
          <g>
            <path class="cls-2" d="M113.77,65.96c1,1.2,5,7.6,5.5,7.6q4.5-5.2,9-10.5c20.7,28.8,14.3,10.5,21.1,10.5,1.6,0,13.2,9.2,27.1,15.3,64.9,28.4,161.7,60.1,231.2,76.3,5.6,1.3,11.4,2.6,17,3.8,17,3.7,34.3,6.1,51.1,10.5-20.4,4.9-40.5,10.4-61.2,14.3,0-.6.2-1.7-.5-1.9-9.6-2.2-50.7-6.9-67.7-9.5-38.3-6-83.3-11.9-117.8-29.6-8.2-4.2-15.3-11.3-23.6-15.3-26.1-12.5-63.7-3.4-91.3,2.9-38.2,8.7-74.7,24-113.3,31.5-.1-42.6,0-85.2,0-127.9,30.5,9,7.3-6.4,8-10,1.4-7.5,16.4-4.3,21.6-2.4-2.1-26.5,7.6-9.5,9-9.5,1.8,0,19.2-19.4,25.6,4.3-20.7,13.8-1.8,1.6,7.5,9.1,4.9,4,2.2,13.6,9,11.5,3.5-1.1-.6-10.1,3-10.5,15,9.4-5.4,13.1,5,15.3,2.5.5,21.5-4.6,9.5,10,10.8,8,5.2-7.7,15.2,4.2Z"/>
            <path class="cls-10" d="M479.87,178.56c-1.3.3-2.7.6-4,1-16.8-4.4-34.1-6.8-51.1-10.5q.5-1,1-1.9c17.8,4.2,36.2,7.1,54.1,11.4Z"/>
            <path class="cls-12" d="M425.67,167.06q-.5,1-1,1.9c-5.6-1.2-11.4-2.5-17-3.8q.5-1.4,1-2.9c5.6,1.5,11.3,3.4,17,4.8Z"/>
          </g>
        </g>
        <g>
          <g>
            <path class="cls-7" d="M492.87,211.96c3.5,4.6,18.1,2.1,29.6,2.9,52.8,3.7,72.1,29.4,142.4,33.4,48.5,2.7,96.4-4.1,144.4-9.5,77.8,15,139.1,22.2,218.1,5.7,0,21.3,1.1,114.5,0,121.2H.47c-1.1-6.8.1-106.6,0-128.8,78,14.8,159.1,3.3,235.2-16.2,2.7-.7,10.2-2.7,9.5-4.8,1.1,0,2.1.3,2-1,18,.6,36.2.1,54.2-1-.8,5.9,11.1,2.5,13.5,2.9.8.1.2,1.8,1,1.9,17.7,2.6,36.8,5.1,54.7,5.7,34.1,1.2,47.5-3,77.2-6.7,16.1-2,22.6-4.8,45.1-5.7Z"/>
            <path class="cls-11" d="M1027.37,207.16v32.4c-69.3,16-141.3,9.4-210.6-3.3,69.6-14.4,140-21.5,210.6-29.1Z"/>
            <path class="cls-20" d="M1027.37,203.36v3.8c-70.6,7.6-141,14.7-210.6,29.1,69.3,12.8,141.3,19.3,210.6,3.3v4.8c-79,16.5-140.3,9.3-218.1-5.7-48,5.4-95.9,12.3-144.4,9.5-70.3-4-89.6-29.7-142.4-33.4-11.5-.8-26,1.7-29.6-2.9,81.9-3.3,87.5,27.6,179,31.5,95,4,168-19.5,252.7-30.5,28.2-3.7,61.6-5.7,90.8-8.6,4-.4,7.9-1.5,12-.9Z"/>
            <path class="cls-20" d="M245.17,215.76c.6,2.1-6.8,4.1-9.5,4.8-76,19.6-157.1,31-235.2,16.2v-5.7c17.6,3.1,35.7,5.9,53.7,6.7,89.3,4,128.8-15.3,187-21.9,1.3-.3,2.7-.1,4-.1Z"/>
            <path class="cls-10" d="M247.17,214.76c.1,1.3-.9.9-2,1-1.3.1-2.7-.1-4,0v-1c2,.1,4,0,6,0Z"/>
          </g>
          <g>
            <g>
              <path class="cls-8" d="M40.57,167.06c9.6,2.5,27.8-.3,36.6,1.9,7.6,1.9,9.6,16.4,72.7,29.6-2.2,3.1-18.6-4-19.1-1.4,36.1,7.5,73.1,15.9,110.3,17.7v1c-58.3,6.7-97.7,25.9-187,21.9-17.9-.8-36-3.6-53.7-6.7v-55.3c8.5-1.5,17.2-2.8,25.6-4.8,2.9-.7,10.4-4.6,11-4.8,1.4-.4,1.9,1.4,3.6.9Z"/>
              <g>
                <path class="cls-20" d="M40.57,167.06c-1.7.5-2.2-1.3-3.5-1-.6.2-8.2,4.1-11,4.8-8.4,2-17.1,3.3-25.6,4.8v-3.8c38.6-7.4,75.1-22.8,113.3-31.5q2,1.7,4,3.3c-25.9,6.5-51.4,16.3-77.2,23.4Z"/>
                <path class="cls-6" d="M205.07,137.46c-1.6,3,21.8,17.3,27.6,20,9.6,4.6,21.8,8.5,32.1,11.5,10.6,3,72.1,15.2,79.2,15.3.2,0,2.5-1.3,2.5-1.9,17,2.7,58,7.3,67.7,9.5.7.2.5,1.3.5,1.9-92.1,17.6-171.9,24.1-264.7,4.8-63.1-13.1-65.1-27.6-72.7-29.6-8.8-2.2-27,.6-36.6-1.9,25.8-7.1,51.3-16.9,77.2-23.4q-2-1.7-4-3.3c27.4-6.3,65.1-15.3,91.2-2.9Z"/>
                <path class="cls-19" d="M346.47,182.36c0,.6-2.3,1.9-2.5,1.9-7.1-.1-68.6-12.2-79.2-15.3-10.3-3-22.5-6.9-32.1-11.5-5.8-2.8-29.2-17-27.6-20,8.3,3.9,15.3,11.1,23.6,15.3,34.5,17.7,79.5,23.6,117.8,29.6Z"/>
              </g>
            </g>
            <g>
              <path class="cls-5" d="M615.17,162.26c2.1,2.5,3.9,5.2,6,7.6.2.3-.5,1.9.5,2.9,21.9,20.9,116.9,19.3,147.9,17.2,46.4-3.2,129-25.7,136.9-23.9,11.7,14.7,36.6,24,55.2,27.7,1.6.3,5.7.3,5.5-1,16,4.3,32.3,7,48.1,11.5-29.1,2.9-62.6,4.9-90.8,8.6-84.6,11-157.6,34.6-252.6,30.5-91.5-3.9-97.1-34.8-179-31.5-22.5.9-29,3.7-45.1,5.7-1-2.1,2.1-2,2-2.4-1.6-6.5-9.1-.4-14.5.5-3.7.6-26.8,2.3-28.1,2.9-1.7.8,1.6,2.9,0,3.8-1.7,1-34.6-4.1-36.6,1.9-17.8-.6-37-3.1-54.7-5.7-.8-.1-.2-1.8-1-1.9-2.4-.3-14.4,3-13.5-2.9,79.2-4.7,183.7-30.3,260.7-52.5q23.8-1,47.6-1.9c1.7.5,4.8,2.8,5.5,2.9Z"/>
              <path class="cls-20" d="M627.27,152.76c.7,4.5,8.7,1.7,2,4.8-7.1-2-15.2-2.9-22.6-2.9-10.1,0-35.1,3.1-44.6,6.7-77.1,22.2-181.5,47.7-260.7,52.5-17.9,1.1-36.2,1.6-54.2,1-2-.1-4,.1-6,0-37.2-1.8-74.2-10.1-110.3-17.7.5-2.5,16.9,4.5,19.1,1.4,92.9,19.3,172.7,12.9,264.7-4.8,20.7-4,40.8-9.4,61.2-14.3,1.3-.3,2.7-.6,4-1,39.6-9.5,111.4-35,147.4-25.7Z"/>
              <path class="cls-14" d="M447.77,217.66c-29.7,3.7-43.1,7.8-77.2,6.7,2-6,34.9-.9,36.6-1.9,1.6-.9-1.7-3,0-3.8,1.3-.6,24.4-2.2,28.1-2.9,5.4-.9,13-6.9,14.5-.5.1.4-3,.3-2,2.4Z"/>
              <path class="cls-20" d="M787.67,158.46c20.1,4.9,40.5,8.7,60.7,13.4,18.6.1,45.9-17.6,62.2-6.7,10,6.7-3.9,11.5,56.7,27.7.1,1.3-3.9,1.3-5.5,1-18.6-3.7-43.4-13-55.2-27.7-7.8-1.9-90.4,20.7-136.9,23.9-1.9-2.5-7.5,1-7-2.9,11.6-.6,23.1-1.1,34.6-2.9,4.6-.7,44.9-9.6,47.1-10.5.7-.3,2-1.7,1-1.9-70.3-9.3-181-41.8-245.7-68.7-9.5-4-17.6-8.5-26.6-13.4,58.5,25.1,128,49.3,190,64.9,6.7,1.7,20.9,5.2,24.6,3.8Z"/>
              <g>
                <path class="cls-19" d="M762.67,187.06c-.5,3.9,5.1.3,7,2.9-31,2.1-126,3.7-147.9-17.2-1-1-.3-2.6-.5-2.9,2,0,3.6,1.8,5,2.9,7.6,6,12,5.8,20.6,9.5,20.2,3.4,40.8,5.7,61.2,3.8-16.7-1.6-33.4-5.5-48.6-12.4-4.8-2.2-9.3-5.2-14-7.6-2.6-1.3-5.7-5.7-16-8.6,6.7-3.1-1.3-.3-2-4.8,18.9,5.1,40.8,39.2,135.2,34.4Z"/>
                <path class="cls-15" d="M629.27,157.56c10.4,2.9,13.4,7.3,16,8.6-5.5,2.8-5.6-4.1-10.5,1.9-5-3.9-12.8-4.5-19.6-5.7-.8-.1-3.8-2.4-5.5-2.9q-23.8,1-47.6,1.9c9.5-3.6,34.6-6.7,44.6-6.7,7.4,0,15.5.9,22.6,2.9Z"/>
                <path class="cls-18" d="M645.27,166.16c4.8,2.4,9.3,5.4,14,7.6-.6,4.7-1.7,2.1-5,2.9,3.2-2.7-6.2-3.6-6-1.4.2,2.2,5.8,1.6,6,1.4-.2,0,1.4,1.9-2.5,1.9-7.2.1-25.6-8.9-25.6-5.7-1.4-1.1-3-2.8-5-2.9-2.1-2.4-3.9-5.2-6-7.6,6.7,1.2,14.6,1.8,19.6,5.7,5-6,5.1.9,10.5-1.9Z"/>
                <path class="cls-9" d="M654.37,176.66c3.3-.7,4.4,1.9,5-2.9,15.2,6.9,31.9,10.8,48.6,12.4-20.4,1.9-41-.4-61.2-3.8-8.5-3.7-12.9-3.6-20.6-9.5-.1-3.2,18.3,5.8,25.6,5.7,4-.1,2.3-1.9,2.6-1.9Z"/>
                <path class="cls-11" d="M654.37,176.66c-.2.2-5.8.8-6-1.4-.2-2.2,9.2-1.4,6,1.4Z"/>
              </g>
            </g>
          </g>
        </g>
      </g>
    </g>
  </g>
</svg>