<?xml version="1.0" encoding="UTF-8"?>
<svg id="Layer_2" data-name="Layer 2" xmlns="http://www.w3.org/2000/svg" xmlns:xlink="http://www.w3.org/1999/xlink" viewBox="0 0 163.29 163.41">
  <defs>
    <style>
      .cls-1 {
        fill: url(#linear-gradient);
      }

      .cls-1, .cls-2, .cls-3, .cls-4, .cls-5, .cls-6 {
        stroke-width: 0px;
      }

      .cls-2 {
        fill: #f4b90a;
      }

      .cls-3 {
        fill: #3d2908;
      }

      .cls-4 {
        fill: #d0850d;
      }

      .cls-5 {
        fill: #ef9f11;
      }

      .cls-6 {
        fill: #f6ce6a;
      }
    </style>
    <linearGradient id="linear-gradient" x1="81.16" y1="832.43" x2="83.83" y2="808.82" gradientTransform="translate(0 961.06) scale(1 -1)" gradientUnits="userSpaceOnUse">
      <stop offset="0" stop-color="#ed9c10"/>
      <stop offset="1" stop-color="#f4bb0b"/>
    </linearGradient>
  </defs>
  <g id="Layer_1-2" data-name="Layer 1">
    <g>
      <path class="cls-1" d="M64.3,124.83c10.3,4.7,22.2,4,33,1.3,1.6,11.1-7.4,14.5-11.4,21.7-4.3,7.5-1.4,18.2-6.5,15-3.3-2.1,1.1-6.4-1.5-13.6-2.5-7-11.7-8.2-13.6-24.4Z"/>
      <g>
        <path class="cls-2" d="M99.2,31.73q-.2.3-.5.7c-.2-1.6-1.6-4.9-3.3-5-.3,0-4.9,1.4-5.7,1.6-7.6.8-15,2.6-22.5,4.1,1.3-5.2,8.9-10.8,11.7-15.4,5.4-9.1.8-17.2,5.1-17.7,5.1-.6,1.7,7.9,2.2,12.9.7,8.6,9.2,10.4,13,18.8Z"/>
        <path class="cls-5" d="M98.7,32.43c.1,1.6-2,3.6-2.4,5.5,9.3,2.4,17.3,8.3,23.3,15.8,1-.9,3.6.1,4-1.4v-2.1h.5c0,.6.3,2.7.1,3q-2.4.5-4.8.9c-12.5-16.3-32.6-20.8-51.9-15.1-.8-2.1-.9-3.7-.3-5.9,7.5-1.5,14.9-3.3,22.5-4.1.8-.2,5.4-1.6,5.7-1.6,1.7.1,3.2,3.4,3.3,5Z"/>
      </g>
      <g>
        <path class="cls-2" d="M131.2,102.63c-.7-.9,1.9-.7,3.8-1.4.3-3.7.7-23.2.1-24.6-.2-.5-1.3-.6-1.1-1.3,3.8,2,9,7.1,12.9,8.9,7.4,3.4,14.6.3,16.1,4,2.1,5-7.6,2.8-14.5,5.8-4.5,2.1-8.4,7.5-17.3,8.6Z"/>
        <path class="cls-5" d="M133.9,75.43c-.1.7.9.7,1.1,1.3.6,1.4.2,20.8-.1,24.6-1.8.7-4.5.4-3.8,1.4-2.2.3-4.3.2-6.5.2,4-9.1,5.6-19.5,3.3-29.4q.2-.2.3-.3c2,.6,3.9,1.2,5.7,2.2Z"/>
      </g>
      <g>
        <g>
          <path class="cls-2" d="M30.1,66.33c-1.3,3.2-1,7.5-1.6,11.1-.8,4.6-2.1,9.4-3.2,13.9,0,.3,3.9,2,4.5,2.2,1.8.6,5.7.9,3.8,1.4-5-.9-16.4-6.3-20.5-9.4-3.9-2.9-8.9-9.9-13.1-13.6.9-7.3,5.9-1.2,9.3-.1,8.5,2.8,15.3-3.8,20.8-5.5Z"/>
          <path class="cls-5" d="M33.6,94.83c1.9-.4-1.9-.7-3.8-1.4-.6-.2-4.4-1.9-4.5-2.2,1.1-4.6,2.4-9.3,3.2-13.9.6-3.6.3-7.9,1.6-11.1,2.9-.9,5.6-1.3,8.7-.6-3.7,9.4-4.1,19.7-1.8,29.5-.4.5-2.8-.2-3.4-.3Z"/>
        </g>
        <g>
          <path class="cls-2" d="M32.9,56.03c-3,3.3-7.1,6.3-10.2,9.4-.3.3-.4.4-.3.9-2-3.8-4.6-10.9-5.5-12.5-1.6-2.6-8.1-5.9-3.8-8.6,4.1-2.5,3.4,5.1,9.6,8.7,3.7,2.1,6.3,1.9,10.2,2.1Z"/>
          <path class="cls-4" d="M22.4,66.33c-.1-.5,0-.6.3-.9,3-3,7.2-6.1,10.2-9.4,2.6.1,5.3-.1,7.9,0,3.4,4,.8,3.4-1.6,9.1-6.6-.9-9.9.1-15.3,3.7-.8-.1-1.2-2-1.5-2.5Z"/>
        </g>
      </g>
      <g>
        <path class="cls-2" d="M63.5,128.93c.2-.1.4.1.7-.7,0,0,.3-.1.2.8-.4,1.1-14,4.9-17.5,7-6.8,4.2-7.1,13.2-12.1,11.4-5.2-1.8,1.5-7.3,2.9-9.3,6.3-9.2,4.1-15.9,4.8-21.8-1.4,3.8,16.8,13.5,17.9,13.7.8.2,2.5-.6,3.1-1.1Z"/>
        <path class="cls-5" d="M64.2,128.23c-.3.8-.5.5-.7.7-3.4-2.9-8.1-4.6-11.8-7.3-4.5-3.2-7.6-7.2-8-7.5h-.6c.4-1.5.8-2.9,1.7-4.1,5,7.8,18,13.7,18.6,14.7.2.1.8,3,.8,3.5Z"/>
        <path class="cls-5" d="M63.5,128.93c-.7.5-2.3,1.3-3.1,1.1-1.2-.2-19.3-10-17.9-13.7.1-.8.5-1.5.7-2.3h.6c.4.3,3.5,4.3,8,7.5,3.6,2.8,8.3,4.5,11.7,7.4Z"/>
      </g>
      <g>
        <path class="cls-2" d="M135.5,72.73c-.6-.2-.6-.4-.7-.5.7.2.5-2.2,1.1-4-1.5-2.3-7.1-13.4-8-14.4-.6-.6-1.1-.1-1.4-.6,17.8-4.2,15.5-11.1,19.8-13.7,2.8-1.7,6.4-.2,5.1,2.9-.2.4-4.6,4.4-6.6,6.9-8.1,9.7-6.7,11.8-9.3,23.4Z"/>
        <path class="cls-5" d="M126.6,53.23c.3.5.8-.1,1.4.6.9,1,6.5,12.1,8,14.4-.6,1.8-.5,4.2-1.1,4-6.4-3.2-8.1-12.8-10.7-16.6-.6-.9-1.4-.2-1.1-1.7,1-.2,2.3-.4,3.5-.7Z"/>
        <path class="cls-4" d="M122.9,53.93c-.3,1.6.5.8,1.1,1.7,2.6,3.8,4.4,13.4,10.7,16.6,0,0,.1.3.7.5-.1.6-.1,2.6-.6,2.7q-3.6-1.5-7.2-3.1c-1.2-6.4-3.9-12.6-8-17.6.2-.3,2.9-.7,3.3-.8Z"/>
      </g>
      <g>
        <path class="cls-2" d="M42,113.13c.2.4.3.8.7.7-.2.3-.3.7-.3.7-14.8-5.1-23.3,7.3-25.6,8.2-2.4.9-5-1.1-4.2-2.6.5-1,13.2-11,14.9-13.5,1.5-2.8,2-6.2,3.2-9q-.2,1.2-.5,2.4c2.1,2.2,6.9,11.7,8.8,12.9.5.3,3.6,1.3,3,.2Z"/>
        <path class="cls-5" d="M42.7,113.83c-.4.1-.5-.3-.7-.7-4.6-9.7-10-16.3-10.3-17.3-.1-.3.3-.4.2-.8q2.7.5,5.5,1c1.5,4.8,4,9.3,7.1,13.3-.9,1.2-1.5,4.1-1.8,4.5Z"/>
        <path class="cls-5" d="M42,113.13c.6,1.1-2.6.1-3.1-.2-1.9-1.2-6.7-10.7-8.8-12.9q.2-1.2.5-2.4c.2-.5,1-2.4,1.4-2.5.1.4-.3.5-.2.8.2.9,5.6,7.5,10.2,17.2Z"/>
      </g>
      <g>
        <path class="cls-2" d="M130,112.23q-.3-.2-.6-.5,1.4-.3,2.9-.6c1.9-3.7,7.3-7.5,8.5-11.3,5.3,15.2,14.6,10.5,12.3,15.9-2,4.7-8.4-2.7-10.6-3.8-4.4-2.1-8.1-.5-12.5.3Z"/>
        <path class="cls-4" d="M135.3,102.43c2.9.3-7,5.8-7.5,7.2-.2.4.6,2.3.1,2.6-1.1.8-4.4-6.1-4.7-7.1.9-2.8,2.1-1.1,5.8-1.6,1.7-.2,4.6-.7,6.3-1.1Z"/>
        <path class="cls-5" d="M130,112.23c-.6.1-3.2.7-3.4.6-.4-2-3.8-6.5-3.9-6.9-.1-.7.4-.8.5-.8.3,1,3.6,7.9,4.7,7.1.4-.3-.3-2.2-.1-2.6.5-1.4,10.5-6.9,7.5-7.2,1.7-.5,3.9-1.6,5.5-2.5-1.1,3.8-6.6,7.6-8.5,11.3q-1.4.3-2.9.6.3.2.6.4Z"/>
      </g>
      <g>
        <path class="cls-2" d="M59.2,34.93c-1.6,0-3.4,1.5-4.9,2.5-4,2.8-15.2,11.7-13.4,16.9-1.8-5.7,1.3-12.9.2-19.3-.8-4.4-7-15.2-7.3-16.5-.6-2.7,2.5-3.4,4.5-2.6,2.6,1.1,1,7.7,7.3,13,3.9,3.4,8.8,4.6,13.6,6Z"/>
        <path class="cls-5" d="M59.2,34.93c1.9.6,3.7.8,5.5,1.6q-2.5,2.3-5,4.7c1.1.9-.8.6.2,1.3-7.1,3.9-12.3,9.1-16.8,15.8-1-1.1-1.7-2.5-2.2-3.9-1.8-5.3,9.4-14.1,13.4-16.9,1.5-1.1,3.3-2.5,4.9-2.6Z"/>
        <path class="cls-4" d="M59.9,42.53c-1-.6.9-.4-.2-1.3q2.5-2.3,5-4.7c.4.2,1.5.2,1.8.6,2,2.7-2,2.8-6.6,5.4Z"/>
      </g>
      <g>
        <path class="cls-2" d="M101.4,128.63c-.1-.3.4-.4.5-.5h.2c.3,1,4.7,2.5,5.4,2.3,2.2-1.9,4.7-3.5,6.9-5.5,2-1.9,10.7-11.7,10.4-13.8,0-.2-1.2-2.3-1.6-2.9,0,0,.3.1.2-.2,1.3,1.9,2.2,3.5,3,5.6,0,7.8-.4,17.9,2.7,25.1,1,2.2,5.5,6.4,1.3,8.1-4.4,1.8-4.4-4-6.5-7.4-4.6-7.4-15.5-6.4-22.5-10.8Z"/>
        <path class="cls-5" d="M123.4,108.13c0,.3-.2.2-.2.2-1.2.8-5.7,14.1-21,19.9h-.2c.1-.2-.1-.7,0-.8.4-.6,5.3-3.6,4.8-5.6,6.3-3.6,11.7-9.5,15.7-15.5.4.7.8,1.7.9,1.8Z"/>
        <path class="cls-4" d="M106.7,121.83c.5,2-4.4,5-4.8,5.6-.1.1.1.6,0,.8,0,0-.5.2-.5.5-.5-.3-3.7-2.6-3.4-3.1,2.9-1.2,6-2.3,8.7-3.8Z"/>
        <path class="cls-5" d="M102.1,128.23c15.3-5.8,19.8-19.1,21-19.9.4.6,1.6,2.7,1.6,2.9.3,2.1-8.4,12-10.4,13.8-2.2,2-4.7,3.6-6.9,5.5-.6.1-5-1.3-5.3-2.3Z"/>
      </g>
      <g>
        <path class="cls-2" d="M124.1,50.33h-.5c-.2-.6-.1-.3-.5-.7.3-.7.3-4.4.2-4.7-.3-.8-13.4-7.8-15.2-9-.8-.1-2.5.5-3.5.7,5.8-2.3,11.1-2.8,15.5-7.7,5.5-6,5.3-13.3,8.6-13.8,8.1-1.2-1.9,12.9-3.3,16.8-2,5.6-1.5,12.5-1.3,18.4Z"/>
        <path class="cls-4" d="M102.4,37.23c5.6,2.5,10.6,6,15.8,9.4-2,0,3.4,4,5.5,5.7-.4,1.5-3,.5-4,1.4-6-7.4-14-13.3-23.3-15.8.4-1.9,2.5-3.9,2.4-5.5q.2-.3.5-.7c.6,1.4,1.3,4,1.8,5.6q.2.2.3.3c.2-.2.6-.3,1-.4Z"/>
        <path class="cls-5" d="M123.2,49.63c-.6-.7-4-2.3-5-3-5.1-3.4-10.1-6.8-15.8-9.4.7-.2,1.4-.5,2.3-.7,1.1-.2,2.8-.8,3.5-.7,1.8,1.2,14.9,8.2,15.2,9,.1.4.1,4.1-.2,4.8Z"/>
        <path class="cls-5" d="M118.1,46.63c1,.7,4.4,2.3,5,3,.3.4.3.1.5.7v2.1c-2.1-1.8-7.5-5.8-5.5-5.8Z"/>
      </g>
      <g>
        <path class="cls-6" d="M79.6,37.23c38.7-2.3,58.6,37.3,44,65.7-12.1,23.6-43.4,31.9-65.7,17.7-40.4-25.8-19.3-80.9,21.7-83.4Z"/>
        <g>
          <path class="cls-3" d="M78.7,46.13c32.1-2.6,51.8,33.7,34.6,57.7-15.3,21.5-49.8,19.3-63.3-2.5-14.1-22.9,2.2-53,28.7-55.2Z"/>
          <path class="cls-2" d="M78.7,46.63c31.6-2.6,51.8,33.9,33.5,57.9-15.5,20.2-48.9,17.8-61.9-3.9-13.6-22.5,2.6-51.9,28.4-54Z"/>
        </g>
      </g>
    </g>
  </g>
</svg>