<?xml version="1.0" encoding="UTF-8"?>
<svg id="Layer_2" data-name="Layer 2" xmlns="http://www.w3.org/2000/svg" xmlns:xlink="http://www.w3.org/1999/xlink" viewBox="0 0 158.73 160.3">
  <defs>
    <style>
      .cls-1 {
        fill: url(#linear-gradient);
      }

      .cls-1, .cls-2, .cls-3, .cls-4, .cls-5, .cls-6, .cls-7, .cls-8, .cls-9, .cls-10, .cls-11, .cls-12, .cls-13 {
        stroke-width: 0px;
      }

      .cls-2 {
        fill: url(#linear-gradient-4);
      }

      .cls-3 {
        fill: url(#linear-gradient-2);
      }

      .cls-4 {
        fill: url(#linear-gradient-3);
      }

      .cls-5 {
        fill: url(#linear-gradient-5);
      }

      .cls-6 {
        fill: url(#linear-gradient-6);
      }

      .cls-7 {
        fill: #f7f1ee;
      }

      .cls-8 {
        fill: #622b30;
      }

      .cls-9 {
        fill: #7c373d;
      }

      .cls-10 {
        fill: #d0953e;
      }

      .cls-11 {
        fill: #c67f3c;
      }

      .cls-12 {
        fill: #ecc654;
      }

      .cls-13 {
        fill: #e8b24e;
      }
    </style>
    <linearGradient id="linear-gradient" x1="60.42" y1="962.26" x2="70.75" y2="936.63" gradientTransform="translate(0 968.33) scale(1 -1)" gradientUnits="userSpaceOnUse">
      <stop offset="0" stop-color="#ecbc56"/>
      <stop offset="1" stop-color="#e19453"/>
    </linearGradient>
    <linearGradient id="linear-gradient-2" x1="13.62" y1="925.22" x2="28.32" y2="910.09" gradientTransform="translate(0 968.33) scale(1 -1)" gradientUnits="userSpaceOnUse">
      <stop offset="0" stop-color="#e99756"/>
      <stop offset="1" stop-color="#dd7e60"/>
    </linearGradient>
    <linearGradient id="linear-gradient-3" x1="25.85" y1="940.3" x2="39.58" y2="928.39" gradientTransform="translate(0 968.33) scale(1 -1)" gradientUnits="userSpaceOnUse">
      <stop offset="0" stop-color="#ebb057"/>
      <stop offset="1" stop-color="#e09152"/>
    </linearGradient>
    <linearGradient id="linear-gradient-4" x1="143.38" y1="924.37" x2="131.85" y2="906.14" gradientTransform="translate(0 968.33) scale(1 -1)" gradientUnits="userSpaceOnUse">
      <stop offset="0" stop-color="#e79c55"/>
      <stop offset="1" stop-color="#de835e"/>
    </linearGradient>
    <linearGradient id="linear-gradient-5" x1="89.16" y1="939.46" x2="92.42" y2="836.49" gradientTransform="translate(0 968.33) scale(1 -1)" gradientUnits="userSpaceOnUse">
      <stop offset="0" stop-color="#af5c5d"/>
      <stop offset=".12" stop-color="#eda44d"/>
      <stop offset=".57" stop-color="#c1616e"/>
      <stop offset=".9" stop-color="#915162"/>
    </linearGradient>
    <linearGradient id="linear-gradient-6" x1="95.67" y1="865.49" x2="103.45" y2="850.42" gradientTransform="translate(0 968.33) scale(1 -1)" gradientUnits="userSpaceOnUse">
      <stop offset="0" stop-color="#473033"/>
      <stop offset="1" stop-color="#0b0d0d"/>
    </linearGradient>
  </defs>
  <g id="Layer_1-2" data-name="Layer 1">
    <g id="Sun-2">
      <g>
        <path class="cls-10" d="M24.2,69.9c-1.6,7.4-1,14.9-.5,22.3-.5-.4-.9-.2-1-.2-3.2-1.6-7.8-3-11.3-4.6-3.5-1.7-9.2-5.2-11.3-6.1-.1-.4.3-.6.6-.7,7.8-3.7,15.7-7,23.5-10.7Z"/>
        <path class="cls-1" d="M90.1,25.8c0,.1-.1.7.2,1.3.3.4,1.9,1.5,2.4,1.8-1.5.9-3.2-.4-4.7-.7-14.3-2.7-25.8-.8-38.2,6.5,0-.4-.3,0-1-.2l-3-29.6q12,10.5,24,21.1c1.9-3.5,8.8-24.4,9.6-25.6.1-.2.4-.4.6-.4,3.9,7.5,7,19,10.1,25.8Z"/>
        <path class="cls-3" d="M32.9,48.3s-.1.4.5,0c-5.6,6.9-6.6,11.6-8.5,20-.2.7-.7.6-.7.6Q13,57.6,1.9,46.2c10.3-.1,20.9-.3,31,2.1Z"/>
        <g>
          <path class="cls-13" d="M110.2,33.8c-.1.1.3.4-1.5,1.3-.1.7,7.9,6.2,9.1,7.2,2.6,2.1,6.1,6.1,8.1,6.5,3.5,5.2,5.3,11.1,7.3,17-.7,2.3-1.9-3.7-3.2-6.2-4.8-9.9-14.5-17.8-23.6-23.6-5.2-3.3-12-6-13.7-7-.5-.3-2.1-1.4-2.4-1.8-.3-.7-.2-1.2-.2-1.3q12.1-10.8,24.1-21.6c-.6,9.9-2.6,19.6-4,29.5Z"/>
          <path class="cls-12" d="M127.4,45.2c-.2.5-.5.9-.7,1.5-.3.7-.7,1.3-.7,1.9v.2c-2-.4-5.5-4.4-8.1-6.5-1.1-.9-9.2-6.5-9.1-7.2,1.8-.9,1.4-1.3,1.5-1.3,1.7-1.3,22.4-11.3,26.8-13.6-1.5,5.4-9.2,22.1-9.7,25Z"/>
        </g>
        <path class="cls-4" d="M48.9,34.5c.7.2.9-.2,1,.2-5.9,3.5-12.1,8.2-16.5,13.6-.6.4-.5,0-.5,0-4.3-8.8-7.3-18.2-10.1-27.6,4.6,2.1,24.7,13.3,26.1,13.8Z"/>
        <path class="cls-9" d="M33.6,113.8c-.4-.7-1.3,1.1-1.7,1.7,1.5-4.5.6-1.7-4.2-1-1.4.2-25.6,1.5-26.9,1.5-.4,0-.6,0-.8-.4,3.5-2.1,23.3-21.3,24-22.8.1-.1,0-.4,0-.6,2.4,10.4,3.3,12.5,9.5,20.5-.1,0,0,1,.1,1.1Z"/>
        <path class="cls-9" d="M69,134.4c.1,0,2.1-.8,1.5.2-.8-.2-.7.6-1.5,1.5-4.7,5.7-18.3,16.1-24.6,21.8,1.3-8.9,3.1-17.7,4-26.7,4.6.7,10.1,2.8,14.7,4.4,2.4.9,3.2,1.8,3.4,1.7.3-.2,0-.8.2-1,.2-.1,0,2.1,2.8-1.8q-.2-.1-.5-.1Z"/>
        <path class="cls-10" d="M88.9,134.6c-.1.4.3.5.2,1,0,1-.7,1.1,0,2.2-.5.4-.6,1.2-.7,1.7-2.8,7-5.5,14.1-8.8,20.8-2.5-5.5-5.1-11-7.4-16.6-1-2.4-1.8-5.8-3.2-7.6.7-.9.6-1.7,1.5-1.5,5.9.4,12.4.9,18.4,0Z"/>
        <g>
          <path class="cls-9" d="M48.9,128.3c-.2.1-.3-.3-.4-.2-.6.1-6.9,4-11.2,6.1-5.3,2.5-10.8,4.7-16,7.3,3.4-6.8,7.4-19.9,10.3-25.5.8-.9,2.6,2.4,4.7,4.4.5.5,5.5,4.6,5.8,4.8.1,0,.7-.1,1.2.2.7.5,3.1,3.4,3.9,1.9,1.1,1.5,1.6-.5,1.7,1Z"/>
          <path class="cls-9" d="M33.6,113.8c6.8,8.6,16.1,13.5,25.8,18.2,3.2.7,6.3,1.9,9.6,2.4q.2.1.5.1c-2.8,3.9-2.6,1.7-2.8,1.8-.3.1,0,.8-.2,1-.2.1-1-.8-3.4-1.7-4.5-1.6-10.1-3.6-14.7-4.4.1-1.2.5-2.5.5-2.9-.1-1.5-.6.5-1.6-1-.8,1.5-3.2-1.5-3.9-1.9-.5-.3-1.2-.2-1.2-.2-.3-.2-5.3-4.4-5.8-4.8-2.1-1.9-3.9-5.2-4.7-4.4.1-.2.1-.3.2-.5.4-.7,1.4-2.4,1.7-1.7Z"/>
        </g>
        <g>
          <path class="cls-10" d="M135.9,70.4c2,1.2,21.8,9.1,22.7,9.9.7.7-1.5,1.6-4,2.9-5.7,3.1-11.6,5.8-17.6,8.2-.8.3-.6.7-.6.7-.1,0-.3-.2-1.2,0-.2-1.3,1.4-7.3,1.2-12.5-.2-5.6-3-10.3-.5-9.2Z"/>
          <path class="cls-2" d="M156,45.9c.3.4.2.7,0,1.1-.8,1.4-19,18.5-21.7,22.2-.4-1.1-.7-2.3-1.1-3.4-2-5.9-3.8-11.8-7.3-17v-.2c5.7-2.4,24.9-3.2,30.1-2.7Z"/>
        </g>
        <path class="cls-9" d="M137.1,94.6c4.5,3.7,15,15.7,21.3,20.7-8.9-.7-24.7.9-31.5-2.5.7-.7,0,.3.6,0,1.2-.6,3.3-4.1,4-5.5,3.8-7,3.9-14.4,5.6-12.7Z"/>
        <g>
          <path class="cls-5" d="M92.8,28.9c1.7,1,8.5,3.7,13.7,7,9.1,5.8,18.8,13.8,23.6,23.6,1.2,2.5,2.5,8.5,3.2,6.2.4,1.1.7,2.3,1.1,3.4,2.7-3.6,20.9-20.8,21.7-22.2.2-.4.3-.7,0-1.1h1.3c-6.9,8.2-15.7,15.3-22.7,23.6,0,.1,1,.7,1.2.8-2.5-1.1.3,3.6.5,9.3.2,5.2-1.4,11.2-1.2,12.5,0,.3.8,1,1,1.5-.2-.1-1.5-1.1-1.7-.8-2.8,19.9-26.8,39.1-45.6,41.8-6,.8-12.5.4-18.4,0,.7-1.1-1.4-.2-1.5-.2-3.3-.6-6.4-1.7-9.6-2.4-9.7-4.7-19-9.5-25.8-18.2-.1-.1-.2-1-.2-1.1-6.1-8-7.1-10-9.5-20.5h-.2c-.5-7.4-1.2-14.9.5-22.3.5-.7,0-.8,0-1,0,0,.6.1.7-.6,1.9-8.4,2.9-13.1,8.5-20,4.3-5.4,10.6-10.1,16.5-13.6,12.4-7.4,23.9-9.2,38.2-6.5,1.5.4,3.2,1.7,4.7.8Z"/>
          <path class="cls-7" d="M29.5,70.9c3.2-13.1,14-25.3,25.9-31.3,12.8-6.4,28.8-7.6,41.9-1.6-5.5,2.3-14,7.3-18.8,9.3-5.2,2.3-6.3-.8-11.2,8.5-3.2,2.4-10.3,3.6-12.2,6.7-2.6,4.2,1.1,11.2-9.3,10.3l-3.6,4.8c-4.3-2.1-7.8-5.8-12.7-6.7Z"/>
          <path class="cls-6" d="M128.5,80.1c.8,33.4-35.2,55.4-65.8,45.2,9.4-3.3,24.4-21.6,30.4-22.4,3.4-.5,8.4,1.9,10.4,1,2.1-1,22.2-19.9,25-23.8Z"/>
          <path class="cls-11" d="M100.4,36.9c3.1.9,20.8,14,20.5,16.1-.3,2.4-2.7-3-4-1.3-4.5-6-16.6-12.1-17.5-12.8-.8-.7,1.3-.5,1.8-.4q-.4-.8-.8-1.6Z"/>
          <path class="cls-9" d="M55.4,39.6c-12,6-22.8,18.2-25.9,31.3-.8,3.5-.7.1-.5-1.1.1-.8.7-.9.7-1,0,0-.4-.2-.2-.7,1.5-5.4,7.1-11.5,4.1-11.2,2-2.4,3.1-3.8,4.7-6.2,1.8-1,3.4-1.5,5-3.3.1-.1-.5-.4.5-1.5,3.3-3.4,14.5-11,11.6-6.3Z"/>
        </g>
        <g>
          <path class="cls-9" d="M127.9,115.2c-.4.6.2.9.2,1,3.2,8.5,6.9,16.9,9.8,25.5-5.8-3.2-20.3-8.9-24.6-12.4-.2-.2-2.2-1.9-2.2-2.1,4.4-2.5,10.1-7.1,13.9-10.5.7-.7,2-1.7,1.8-2.4.2,0,.9.8,1.1.9Z"/>
          <path class="cls-8" d="M136.2,93.7c.5.3.6.7,1,1-1.7-1.7-1.8,5.7-5.6,12.7-.7,1.4-2.8,4.9-4,5.5-.6.3.1-.7-.6,0,0,0-.5-.1-.5.1.3.6.5,1.3.5,1.3.1.7-1.1,1.8-1.8,2.4-3.8,3.5-9.5,8-13.9,10.5-.1.1,1.9,1.9,2.2,2.1q-1.4-.7-2.8-1.5c-.3.2.1,2.4.1,2.9-1.9-2.2-3.9,1.2-5.5-.2q-.2.5-.5,1c-2,.1-6.9,3.1-8.7,3.6-.6.2-3.9.4-5.7,1.5-.3-.3-.8-.7-1.2-1,0-.5-.3-.5-.2-1,18.8-2.7,42.8-21.9,45.6-41.8.1-.2,1.3.7,1.6.9Z"/>
          <path class="cls-9" d="M110.7,130.7c.8,8.6,3.2,17.9,4,26.7-8.3-6.7-16.8-13.3-24.4-20.8,1.8-1.1,5.1-1.3,5.7-1.5,1.8-.6,6.7-3.6,8.7-3.6q.2-.5.5-1c1.7,1.5,3.6-2,5.5.2Z"/>
        </g>
      </g>
    </g>
  </g>
</svg>