<?xml version="1.0" encoding="UTF-8"?>
<svg id="Layer_2" data-name="Layer 2" xmlns="http://www.w3.org/2000/svg" xmlns:xlink="http://www.w3.org/1999/xlink" viewBox="0 0 168.3 174.5">
  <defs>
    <style>
      .cls-1 {
        fill: url(#linear-gradient);
      }

      .cls-1, .cls-2, .cls-3, .cls-4, .cls-5, .cls-6, .cls-7, .cls-8, .cls-9, .cls-10, .cls-11, .cls-12, .cls-13, .cls-14 {
        stroke-width: 0px;
      }

      .cls-2 {
        fill: #c56a7d;
      }

      .cls-3 {
        fill: #dbba7d;
      }

      .cls-4 {
        fill: #dccab3;
      }

      .cls-5 {
        fill: #d77047;
      }

      .cls-6 {
        fill: #b75470;
      }

      .cls-7 {
        fill: #9f4659;
      }

      .cls-8 {
        fill: #322d34;
      }

      .cls-9 {
        fill: #e5d6cc;
      }

      .cls-10 {
        fill: #e5ab3f;
      }

      .cls-11 {
        fill: #faefbf;
      }

      .cls-12 {
        fill: #e68d37;
      }

      .cls-13 {
        fill: #eee5cb;
      }

      .cls-14 {
        fill: #e7cba2;
      }
    </style>
    <linearGradient id="linear-gradient" x1="132.97" y1="937" x2="121.51" y2="933.47" gradientTransform="translate(0 973) scale(1 -1)" gradientUnits="userSpaceOnUse">
      <stop offset="0" stop-color="#dccebe"/>
      <stop offset="1" stop-color="#cdad6d"/>
    </linearGradient>
  </defs>
  <g id="Layer_1-2" data-name="Layer 1">
    <g id="Sun-1">
      <g>
        <path class="cls-1" d="M144,24.8c-1.5,1.9-3.5,3.6-4.8,5.7-9.4,6.4-8.6,17.2-15.6,15.3-.4-1.3-.9-.8-1.1-.9-3.1-2.1-3.5-7.9-4.4-8.3-1.8-.1-4.3,1.8-5.8,1.3,10.3-5.2,21.2-8.7,31.7-13.1Z"/>
        <g>
          <path class="cls-4" d="M25.7,88.4c-7.7,4.4-9.7,1.4-17.3,0-2.3-.4-4.8-.3-7.1-.9,5.6-2.3,11.4-3.6,17-6.8-.1,2,2.2,4.2,3.8,5.2,2.3,1.7,3.9.9,3.6,2.5Z"/>
          <path class="cls-3" d="M25.7,88.4c.3-1.6-1.3-.8-3.6-2.4-1.6-1.1-3.9-3.2-3.8-5.2,3-1.6,6.1-4,8.3-6.5.6,6.3,1.5,6.5,5.2,11-3.8.4-4.4,2.1-6.1,3.1Z"/>
        </g>
        <g>
          <path class="cls-4" d="M166.2,86.9c-9.9.9-16.7,7.1-23.5,3.3,3.1-1.4,14.4-5.4,12.6-7.8,3.6,1.7,7.3,3.1,10.9,4.5Z"/>
          <path class="cls-3" d="M155.3,82.3c1.8,2.5-9.5,6.4-12.6,7.8-7.5-4.2,3-4.4,8.1-10.5,1.4,1,3,1.9,4.5,2.7Z"/>
        </g>
        <path class="cls-9" d="M151,62.7q-7.5-2-14.9-3.9-.4-.2-.8-.3c-.1-.5.2-.6.2-.8h22.1c-1.9,2-4.5,3.3-6.6,5Z"/>
        <path class="cls-4" d="M144.7,110c4,2.9,8.6,5.3,12.6,8.2-.3.4-6.1-.1-7-.1q-6.9-4.5-13.7-9,4,.4,8.1.9Z"/>
        <path class="cls-9" d="M33.1,57.9c.5.2-.3.4-.7.7-2.4,1.3-10.5,3-13.7,3.9-.6-.6-5.2-4-5.3-4.4q.1-.2.2-.4,9.7.1,19.5.2Z"/>
        <g>
          <g>
            <path class="cls-3" d="M44.2,137c-2.8-1-5.8,4.2-11.8.4,1.5-6,2-12.2,2.6-18.3.1,0,1.7-.2,2.1-.2q.5.2,1.1.4c1.1,1.4,3.9,2.9,4.9,4.5,2.1,3.4,2.1,9.6,1.1,13.2Z"/>
            <path class="cls-4" d="M44.2,137c-1.2,4-3.9,5.2-7.3,7.2-2,1.2-6.8,2.9-7.3,4.1-.3.1-1.8.6-2,.3,2.3-3.3,3.8-7.3,4.8-11.2,6,3.9,8.9-1.4,11.8-.4Z"/>
          </g>
          <g>
            <path class="cls-4" d="M34.4,108c-.4,5.7-10.3,8.2-14.4,10.7-3.1,0-6.2.3-9.3.4.4-.6,1.9-1.1,2.7-1.5,1.6,1.1,1.2.6,2.2,0,.7.9,1.8.9,2.9.4.6-.2,9.7-6.9,10.5-8.3q2.7-.8,5.4-1.7Z"/>
            <path class="cls-14" d="M34.4,108q-2.7.9-5.3,1.7c-.8,1.3-9.8,8-10.5,8.3-1.1.5-2.3.5-2.9-.4,1.4-.8,11.2-7.9,10.9-9.6.3-.3.4-.2.4-.2,3.4,1.5,7.6-3.2,7.4.2Z"/>
            <path class="cls-13" d="M15.6,117.6c-1,.6-.6,1.1-2.2,0,4.4-2.5,9.4-6.1,13.1-9.6.3,1.7-9.5,8.8-10.9,9.6Z"/>
          </g>
        </g>
        <path class="cls-4" d="M80.8,28.3c-1.7-.2-.6-4-3.2-5-1.1-.4-5.2-.1-5.4,0-.4.2-4.1,6.4-5.2,7.2-1.5,1.1-5.8,1.9-7.6,2.6-1.1.5-1,1.4-2.6,1.1q-.5.8-1,1.5c.6-6.6.2-13.2.5-19.8q5.3,6.9,10.7,13.7c3.2-3.2,8.2-13.1,9.3-14.5.2-.2.6-.1.7-.1.4-.4.9-.8,0-.9.3-.7,6.4-12.7,6.8-13.3.6,2,1.1,5.5,1.3,7.7.6,7.8,1.1,13.5-4.3,19.8Z"/>
        <path class="cls-3" d="M80.8,28.3c-4.3,5-11.3,7.7-16.7,11.3-.8-.3-2.1.5-2.8.7-.4.1-3.2-.5-5,.9-3,.1-12.5.5-14.2.9-.4.1-.8.7-1.2.9-.6-2.1-1.7-4-2.4-6.1.7-1.4,4.4-.2,5.2-1.1,2.9.8,5.7,1.7,8.7,1.7,1.1.3,2.1.6,3.2.9.2-.2.1-2.2.1-2.6q.5-.8,1-1.5c1.6.3,1.5-.6,2.6-1.1,1.8-.7,6.2-1.5,7.6-2.6,1.1-.8,4.8-7,5.2-7.2.2-.1,4.4-.4,5.4,0,2.7.8,1.6,4.7,3.3,4.9Z"/>
        <g>
          <path class="cls-4" d="M27.4,26.3c2.3,1.3,4.4,2.7,6.8,3.9-.5.5.4.5,1.5,1.2-.7,1.6,4,2.8,5.4,3.4-3.1,1.3-3.6-.7-2.6,2,.7,2.1,1.8,4,2.4,6.1.8,2.6,1.5,4.7,1.1,7.4-.4-1.1-3.6-1.2-3.1-2.1.1-.1,1.2-.1,1.1-.4-.1-.4-6.2-2.3-7.2-.5-.5-5.7-1.4-11.4-3.7-16.7-1.7-4.1-3.8-5.5-1.7-4.3Z"/>
          <path class="cls-3" d="M42,50.3c-.1.4-.2,1.8-.2,1.9-.6,1.4-5.6,5.3-8,4.9-.1,1.2-1,2.1-1.4,1.5.4-.2,1.2-.5.7-.7.6-2.1,0-8.2-.2-10.7.9-1.8,7.1.2,7.2.5.1.3-1,.3-1.1.4-.6.9,2.6,1.1,3,2.2Z"/>
          <path class="cls-9" d="M52.5,37.4c-3-.1-5.8-.9-8.7-1.7-.9-.3-1.7-.5-2.6-.9-1.5-.5-6.2-1.8-5.4-3.4-1.1-.7-2-.7-1.5-1.2,4.8,2.5,12.9,5.9,18.2,7.2Z"/>
        </g>
        <path class="cls-11" d="M112.2,13.7c-3.1,3.1-9.1,12.4-12.6,14.4,2.3-2.3,11.3-14.7,12-15.4.9-.9.5-.7.6,1Z"/>
        <path class="cls-4" d="M76.9,15c-.4-.5-.2-.5,0-.9.9.1.3.5,0,.9Z"/>
        <path class="cls-4" d="M43.7,35.7c-.8.9-4.5-.3-5.2,1.1-.9-2.7-.5-.6,2.6-2,.9.3,1.7.6,2.6.9Z"/>
        <g>
          <path class="cls-10" d="M99.5,28c3.5-1.9,9.6-11.3,12.6-14.4.3,4.7-.6,23.3.2,24.2,1.5.5,3.9-1.4,5.8-1.3.9.4,1.3,6.2,4.4,8.3.1.1.7-.4,1.1.9,7,2,6.2-8.9,15.6-15.3-3.2,5-4.7,21.5-3.7,27.2,0,.2-.3.3-.2.8q.4.2.8.3,7.5,2,14.9,3.9c-3.5,2.8-6.7,6.1-10.2,8.8,3,3.1,6.4,5.9,10,8.2-5.1,6.1-15.5,6.2-8.1,10.5,6.8,3.8,13.6-2.4,23.5-3.3.7.3,1.3.6,2.1.7v.4c-10.3,4.6-17.9,13.4-28.2,18.2-.1.3,4.1,3.4,4.6,3.8q-4-.5-8.1-1,6.9,4.5,13.7,9c-1.7,0-14.9-.4-15.3.3.5,9.8,2.2,19.5,5.8,28.7-9.1-4.5-18.7-8-27.7-12.9q-.1,12.3-.1,24.5-6.7-7.2-13.4-14.5-7.6,15.3-15.3,30.5c-5.2-9.4-10-18.9-15.9-27.9q-5.8,7.4-11.7,14.7-.2-12.8-.3-25.6c-7.2,7.5-17.3,9.9-26.9,12.4.5-1.2,5.3-3,7.3-4.1,3.4-2,6.1-3.2,7.3-7.2,1.1-3.6,1-9.8-1.1-13.2-1-1.6-3.8-3.1-4.9-4.5q-.5-.2-1.1-.4c-.4,0-2,.2-2.1.2,0,0,.1-.4-.1-.4-2.6-.2-11.3-.1-14.9,0,4.1-2.5,14-4.9,14.4-10.7.2-3.5-4,1.2-7.4-.2.2-.2,1.5-1.6,1.4-1.7-10.1-5.1-18.8-12.7-28.3-18.3.4-.1,1.1-.2,1.2-.2,2.2.6,4.8.5,7.1.9,7.6,1.4,9.6,4.4,17.3,0,1.7-1,2.4-2.8,6.1-3.2-3.8-4.5-4.7-4.7-5.2-11,.8-.9,1.4-1.8,2.2-2.7-3.3-3-6.7-6.1-10-9,3.2-.9,11.4-2.6,13.7-3.9.4.5,1.3-.3,1.4-1.5,2.4.4,7.3-3.5,8-4.9,0-.1.2-1.5.2-1.9.4-2.7-.3-4.8-1.1-7.4.4-.2.8-.8,1.2-.9,1.6-.4,11.2-.8,14.2-.9,1.9-1.4,4.6-.8,5-.9.7-.2,2-.9,2.8-.7,5.4-3.6,12.4-6.4,16.7-11.3,5.4-6.2,4.9-12,4.1-19.7-.2-2.3-.7-5.7-1.3-7.7,0,0-.1-.4.3-.7q.2.2.3.3c3.9,9.9,10.3,18.6,14.5,28.2.3-.1.5-.3.8-.5Z"/>
          <g>
            <path class="cls-12" d="M81.1,35.9c9.3-.5,18.9,2.7,26.8,7.4,18.5,11,28.5,33.3,23,54.4-1.1,1.8-1,3.7-1.1,3.9-6.8,20.3-28.9,38.5-51.1,35.6-8.4-1.1-18.9-7.6-25.1-13.3-13-11.9-20.5-27.7-17.5-45.4q.3-.1.7-.2c-1-1.6.9-1.8-.2-2.2,1.3-.9.4-1.4.4-1.5,1.8-7,6.7-16.7,11.6-22,7.3-8.2,21.5-16.1,32.5-16.7Z"/>
            <path class="cls-8" d="M79.8,41.3c18.2-1.4,36.4,8.3,44.8,24.7,9.9,19.5,4.2,42.2-13,55.5-20.5,15.8-46.9,12.8-63.1-7.3-25.3-31.4.9-70.5,31.3-72.9Z"/>
            <g>
              <path class="cls-6" d="M92.8,48.5c4.3,2.8,3.3-.3,1.5,5-12.9-4.8-24-1.4-33.3,8.1-7.4,7.5-10.6,15.1-10.7,25.7-.1,9.1,2.5,16.3,8.5,23.2,15.3,17.8,38.3,16.8,51.2-1.6,1.8-1,1.7,2.2,2,2.7.4.9,1.1.5,1.1,1.4-30.8,33.3-77.3,1-67.4-37.4,5.4-20.6,26.9-31.7,47.1-27.1Z"/>
              <path class="cls-7" d="M113.1,113c0-.9-.7-.5-1.1-1.4-.2-.5-.1-3.7-2-2.7,4.1-5.8,6.6-12,7-19.2.7-11.9-2.1-20-10.7-28.1-3.6-3.4-7.3-6.3-12-8.1,1.7-5.3,2.7-2.2-1.5-5,30.4,6.9,40.6,42.6,20.3,64.5Z"/>
              <g>
                <path class="cls-5" d="M117,89.7c-.4,7.2-2.9,13.3-7,19.2-12.9,18.4-35.9,19.4-51.2,1.6-6-7-8.6-14.1-8.5-23.2l66.4-.2q.1,1.3.3,2.6Z"/>
                <path class="cls-5" d="M106.3,61.6c8.6,8.2,11.3,16.2,10.7,28.1q-.2-1.3-.3-2.6l-66.4.2c.1-10.6,3.3-18.2,10.7-25.7q22.6,0,45.3,0Z"/>
              </g>
              <path class="cls-2" d="M94.3,53.5c4.7,1.8,8.4,4.7,12,8.1h-45.3c9.3-9.5,20.4-12.9,33.3-8.1Z"/>
            </g>
          </g>
        </g>
      </g>
    </g>
  </g>
</svg>