<?xml version="1.0" encoding="UTF-8"?>
<svg id="Layer_2" data-name="Layer 2" xmlns="http://www.w3.org/2000/svg" xmlns:xlink="http://www.w3.org/1999/xlink" viewBox="0 0 251.48 311.73">
  <defs>
    <style>
      .cls-1 {
        fill: url(#linear-gradient);
      }

      .cls-1, .cls-2, .cls-3, .cls-4, .cls-5, .cls-6, .cls-7, .cls-8, .cls-9, .cls-10, .cls-11, .cls-12, .cls-13, .cls-14, .cls-15, .cls-16, .cls-17, .cls-18, .cls-19, .cls-20, .cls-21, .cls-22, .cls-23, .cls-24, .cls-25, .cls-26, .cls-27, .cls-28, .cls-29, .cls-30, .cls-31, .cls-32, .cls-33, .cls-34, .cls-35, .cls-36, .cls-37, .cls-38, .cls-39, .cls-40, .cls-41, .cls-42, .cls-43, .cls-44, .cls-45, .cls-46, .cls-47, .cls-48 {
        stroke-width: 0px;
      }

      .cls-2 {
        fill: url(#linear-gradient-4);
      }

      .cls-3 {
        fill: url(#linear-gradient-2);
      }

      .cls-4 {
        fill: url(#linear-gradient-3);
      }

      .cls-5 {
        fill: url(#linear-gradient-5);
      }

      .cls-6 {
        fill: #f3f3f5;
      }

      .cls-7 {
        fill: #632d2e;
      }

      .cls-8 {
        fill: #604b70;
      }

      .cls-9 {
        fill: #7a3c3b;
      }

      .cls-10 {
        fill: #28213a;
      }

      .cls-11 {
        fill: #35171e;
      }

      .cls-12 {
        fill: #2a8aa4;
      }

      .cls-13 {
        fill: #58bdcc;
      }

      .cls-14 {
        fill: #8a463c;
      }

      .cls-15 {
        fill: #72374f;
      }

      .cls-16 {
        fill: #31526d;
      }

      .cls-17 {
        fill: #31304c;
      }

      .cls-18 {
        fill: #1a111f;
      }

      .cls-19 {
        fill: #0f212d;
      }

      .cls-20 {
        fill: #1c5b67;
      }

      .cls-21 {
        fill: #0f1010;
      }

      .cls-22 {
        fill: #433958;
      }

      .cls-23 {
        fill: #14748a;
      }

      .cls-24 {
        fill: #0b445a;
      }

      .cls-25 {
        fill: #08191a;
      }

      .cls-26 {
        fill: #1f344f;
      }

      .cls-27 {
        fill: #173438;
      }

      .cls-28 {
        fill: #22a9bb;
      }

      .cls-29 {
        fill: #cc7e8e;
      }

      .cls-30 {
        fill: #cb7c6b;
      }

      .cls-31 {
        fill: #cbe1de;
      }

      .cls-32 {
        fill: #afb6af;
      }

      .cls-33 {
        fill: #d78959;
      }

      .cls-34 {
        fill: #d4d4d6;
      }

      .cls-35 {
        fill: #b26184;
      }

      .cls-36 {
        fill: #bedbe7;
      }

      .cls-37 {
        fill: #aad8dc;
      }

      .cls-38 {
        fill: #8dbcc6;
      }

      .cls-39 {
        fill: #b56748;
      }

      .cls-40 {
        fill: #8d82a9;
      }

      .cls-41 {
        fill: #7cb8d0;
      }

      .cls-42 {
        fill: #85526b;
      }

      .cls-43 {
        fill: #876787;
      }

      .cls-44 {
        fill: #7f5a45;
      }

      .cls-45 {
        fill: #728893;
      }

      .cls-46 {
        fill: #747476;
      }

      .cls-47 {
        fill: #043345;
      }

      .cls-48 {
        fill: #03647b;
      }
    </style>
    <linearGradient id="linear-gradient" x1="23.36" y1="-229.63" x2="70.58" y2="-258.94" gradientTransform="translate(0 -20.35) scale(1 -1)" gradientUnits="userSpaceOnUse">
      <stop offset="0" stop-color="#1b1324"/>
      <stop offset="1" stop-color="#060709"/>
    </linearGradient>
    <linearGradient id="linear-gradient-2" x1="60.31" y1="-94.08" x2="108.3" y2="-103.73" gradientTransform="translate(0 -20.35) scale(1 -1)" gradientUnits="userSpaceOnUse">
      <stop offset="0" stop-color="#d08752"/>
      <stop offset="1" stop-color="#e2ae56"/>
    </linearGradient>
    <linearGradient id="linear-gradient-3" x1="158.15" y1="-189.24" x2="113.39" y2="-277.9" gradientTransform="translate(0 -20.35) scale(1 -1)" gradientUnits="userSpaceOnUse">
      <stop offset="0" stop-color="#ccc9ca"/>
      <stop offset=".76" stop-color="#56565a"/>
    </linearGradient>
    <linearGradient id="linear-gradient-4" x1="97.51" y1="-119.64" x2="82.28" y2="-141.37" gradientTransform="translate(0 -20.35) scale(1 -1)" gradientUnits="userSpaceOnUse">
      <stop offset="0" stop-color="#d3adbb"/>
      <stop offset="1" stop-color="#9a8aab"/>
    </linearGradient>
    <linearGradient id="linear-gradient-5" x1="152.89" y1="-233.99" x2="218.74" y2="-270.57" gradientTransform="translate(0 -20.35) scale(1 -1)" gradientUnits="userSpaceOnUse">
      <stop offset="0" stop-color="#469cb6"/>
      <stop offset=".75" stop-color="#a7ced7"/>
    </linearGradient>
  </defs>
  <g id="Layer_1-2" data-name="Layer 1">
    <g>
      <path class="cls-1" d="M102.52,202.93c-37.1,30.8-70.6,2.4-98.6,61.8-7.3,3.4-2.3-16.9-1.6-20.1,10.2-38.7,35.5-65.5,76.9-66.1q-1.6-2.9-3.2-5.7c6.3,8.9,18.4,22.3,26.5,30.1Z"/>
      <g>
        <path class="cls-12" d="M43.52.63c67,43.6,148.9,91.7,193.5,165.4,4.3,6.2,9.7,20.9,9.2,10.3,1.9,14.8,1.7,27.3-9.2,2.8C184.32,115.93,116.02,68.43,53.12,16.23c-3.4-2.9-18.7-14-9.6-15.6Z"/>
        <path class="cls-21" d="M111.72,80.73c1,2.3,1.5,6.1,2.3,8.7-2.1-.7-1.6-3.4-2.7,0C103.62,66.33,25.52-5.47,21.62,43.03c-5.9-59.8,80.3,17,90.1,37.7Z"/>
        <path class="cls-7" d="M28.02,37.23c-.9,15.6,30.2,45.7,13.3,52.2-.2-1.3-17.3-33.7-10.3-26.1.5-.3-1.6-7.7-2.1-8.7,6-1.5-4.8-17-.9-17.4Z"/>
        <path class="cls-34" d="M111.22,89.43c-.2,1.5.4,1.9.5,2.3C103.52,74.32,39.52,7.93,23.42,35.43c10.6-32.6,81,32.5,87.8,54Z"/>
        <path class="cls-15" d="M28.02,37.23c-3.8.3,6.9,15.9.9,17.4-.4-1.1-1.7-3.5-1.8-.9-2.3-7.8-7.1-15.5-.5-22,.1,2,.8,3.7,1.4,5.5Z"/>
        <path class="cls-48" d="M41.72,1.13c-4,4,9,11,11.4,15.1-9.3-5.7-24.3-2.3-11.4-15.1Z"/>
        <path class="cls-18" d="M38.02,11.63c-2.3,7.9-8.9,14.3-8.2,1.8,5-1.7,5.5-6.8,9.1-10.1-.2,2.8-5.1,8.7-.9,8.3Z"/>
        <path class="cls-10" d="M29.82,13.53c2.5,9-4.1,7.8-9.1,13.3,1.5-9.5,6.9-11.5,9.1-13.3Z"/>
        <path class="cls-42" d="M27.02,53.73c.3,1.3.5,2.8,0,4.1-5.5-11.5-5.9-26.8,0-4.1Z"/>
        <path class="cls-15" d="M28.92,54.63c.4,1,2.6,8.4,2.1,8.7-.1.1-1.4-3.3-1.6,0-1.7-1.3-4-15.5-.5-8.7Z"/>
        <path class="cls-40" d="M56.32,119.13c-.3,1.6-1.1,1.8-1.8,3.2-4.1-11.1-9.2-22-13.3-32.9,4.6.5,13.9,28.8,15.1,29.7Z"/>
        <path class="cls-12" d="M226.02,131.93c9.1,7.6,40.7,90.1,11,34.1-17.6-33-63-57.6-92.2-81.5C107.62,54.03,82.92,24.12,43.52.62c34.6-9.4,163.8,89.7,182.5,131.3Z"/>
        <path class="cls-26" d="M248.92,224.43c-20.5-17.7-29.1-39.4-56.5-51.2-5.9-4-16.2-14.7-12.6-8.7-1.1-1-4.3-4.4-4.6-4.6,9,1.8,33.2,17,40,22.4,3,2.4,21,22.3,17.2,11.7-2.4-6.6-20.7-25.5-22-35,31.2,17.9,42.7,78.8,37.5,31.6-.3-3.8-.9-7.7-1.4-11.4,5,6.7,6.6,26.6,2.3,35"/>
        <path class="cls-48" d="M248.02,190.53c.2,2.3,1.9,19.7.2,20.1-16.8-43.5-59.1-68.8-83.9-107.5,26.4,20.8,70.8,66.4,83.7,87.4Z"/>
        <path class="cls-20" d="M248.02,179.13c-2.2.7-2.4-4.8-1.8-5.9.5,1.9,1.3,3.9,1.8,5.9Z"/>
        <path class="cls-21" d="M195.42,311.73c-1.9-.9-4-4.9-7.8-4.1,0-.1,0,.3-.9-.9,15-65.6-42.1-67.2-28.4-135,1.9-7.5-5-7.3-4.6-16,19.1,6.9,7.9,1.2,10.5,14q2.1-.3,4.1-.7c-23,46.9,26,59.4,32.9,108.6.9,10.5-3.4,21.8,2.3,20.4,27.1-43.6-6.8-111.3-37.1-137.7,6-6.1,12.3,3.2,16.5,7.8,16.5,35.2,53.6,49.1,56.7,92.2.8,21.1-1.5,17.9,5,2.5-12.3,41.8-5.9,40.6-49.2,48.9Z"/>
        <path class="cls-15" d="M39.42,52.83c1.4,4.1.3,8.8-1.1,6.4-1.3,1,3,6.4,1.6,7.8-4.5-10.6-15.9-27.1-11-37.5,1.9,2.2,4.8,1.2,5,1.6.8,7.6,3.1,14.3,5.5,21.7Z"/>
        <path class="cls-14" d="M41.72,51.93c.5,11.7,6.8,22.4,10.5,33.4-.1-.7-4.7.9-4.6-1.4,2.6,1.7,1-.7.2-2.3q-.3.5-.7.9c-4.5-11.9-10.8-16.8-6.9-27.7-2.3-1.6.5-4.2,1.5-2.9Z"/>
        <path class="cls-43" d="M52.22,85.33c2.2,1.5,6.5,11.6,5,14.9,4.7,8.3-2.5-1.6-3-1.6-2.9,2.7-5.1-9.3-7.1-12.4,1.3-2,4.7-1,5.1-.9Z"/>
        <path class="cls-8" d="M45.32,87.13c3.4,7.5,6.1,15.6,10.1,22.2-1.8,2.9,3.9,8.2.9,9.8,1.4-1.7-17.8-30.7-11-32Z"/>
        <path class="cls-22" d="M47.22,86.23c3.1,8.2,7,16,11,23.8-3.6.4-.4,5.1.9,6.9-.1,0-1.7,1.2-1.8,1.4-.9-5-3.7-9.8-4.1-14-.9-5.4-10.6-14.4-6-18.1Z"/>
        <path class="cls-9" d="M47.62,83.93c-.4-1-.6-1.5.2-2.3.8,1.6,2.4,4-.2,2.3Z"/>
        <path class="cls-3" d="M49.02,54.23c1.8,2.8,2.9,8.7,4.1,3.7,3,1.8,30.8,21,27.4,13.3,3.3,2.3,8,10.1,10.7,5,11.8,6.5,22,6.7,21.3,27-53-25.1-53.1,1.2-68.2-51.7q2.4,1.3,4.7,2.7Z"/>
        <path class="cls-35" d="M36.62,28.13c6.3,6.2,5.6,16.3,6.4,23.8-1.8.5-2.1-1.7-3.7.9-2.4-7.4-4.7-14.1-5.5-21.7-.3-.4-3.1.6-5-1.6,3.2-2,4.4-1.8,7.8-1.4Z"/>
        <path class="cls-11" d="M101.62,77.03c-4.1-3-10.8-12.4-13-10.1.3-2.6-3.9-7.9-5.9-5.5-.5-4.5-5.7-9.1-6.4-3.7-.8-.2,2-6-5.3-7.5-.5,6.1-.4-1.7-1.6-3-.2-.2-5.5-3.1-3.9,0-.8-2.3-1.2-3.7-3.4-4.6-1.1,11.9-.8-5.2-5.5-3.7-2,.7-.1,9.1-2.1-1.6-8.4-4.2-6.7-8.1-6.9.2-.5-5.6-2.9-7.3-8-8.7-.8.4,1.8,3,.2,3.7-.3-.8.1-2.3-3.2-4.6,19.5,5,52.3,32.5,65,49.1Z"/>
        <path class="cls-44" d="M106.22,83.03c-1.6-1.2-3.6-4.3-5-5.9,1.7.8,4.2,3.6,5,5.9Z"/>
        <g>
          <path class="cls-4" d="M117.22,146.13c23.6,1.7,22.7,15.8,41.2,25.6-13.7,67.8,43.4,69.3,28.4,135-7.1-9.7-4.3-12.9-10.1-9.1-19.4-57.5-70.9-84.3-103.4-129,4.4-2.2-.5-21.9.9-28.1,9.4-8.6,31.4,3.2,43,5.6Z"/>
          <path class="cls-21" d="M176.62,297.53c1.1,3.6,2.5,9,.2,11.9-11.3-33.7-35.5-73.4-62-95.6,26.9,16.7,49.5,56.3,61.8,83.7Z"/>
        </g>
        <path class="cls-2" d="M54.92,85.33c19.9,2.7,38.7,10.7,57.6,17.8,2,12.3,8,19.3,14.6,29.3-22.4-.2-52.5-9.6-66.8-18.3-2.8-4.5-4.9-9.5-7.3-14.2.5,0,.7-1.4,1.1-1.4.5,0,7.7,9.9,3,1.6,3.5-3.6-6.8-13.1-2.2-14.8Z"/>
        <path class="cls-47" d="M248.02,224.43c8.3,7.7-.8,24.6-1.8,35.2-3-41.1-38.9-65.4-66.3-95.2-3.6-6,6.7,4.7,12.6,8.7,26.8,12.4,36.1,31.7,55.5,51.3Z"/>
        <path class="cls-19" d="M246.22,259.63c-2.2,6-1.2,2.5-2.7,6.9-3.3-53-39.1-60.4-60.4-98.4,27.4,27.8,60.2,52.5,63.1,91.5Z"/>
        <path class="cls-25" d="M243.42,266.43c-6.2,16.4-2.2,9.2-3.7-6.2-3.6-37.7-29.3-51.8-49.4-79.4,27.1,27.8,48.8,41.7,53.1,85.6Z"/>
        <path class="cls-26" d="M180.32,175.93c-3.5-8.1-12.8-7.4-14.6-15.6,1.8.3,4.7-.4,5.3-.5.9.3,13.2,12.4,9.3,16.1Z"/>
        <path class="cls-19" d="M169.82,167.23c-.8,2.3-3.2,2.1-5.5,2.5-1.6-10.6,1-9.7,5.5-2.5Z"/>
        <g>
          <path class="cls-5" d="M180.32,175.93c4.9,34.8,42.9,75.5,23.3,122.1-5.7,1.4-1.3-9.8-2.3-20.4-7-48.3-47-53.8-37.1-99,11.1-1.3-.5-23.6,16.1-2.7Z"/>
          <path class="cls-6" d="M203.62,298.03c21.2-43.8-19.6-84-20.1-116.2,22,34,44.7,77.2,20.1,116.2Z"/>
          <path class="cls-48" d="M164.32,178.63c1.2-3.6,2.6-8.5,5.5-11,.8,3.7-.8,11.7-5.5,11Z"/>
        </g>
        <path class="cls-39" d="M43.02,51.93c1.7,9.6,8.1,24,11.9,33.4-8.3-4.7-11.3-23.2-13.3-33.4.5.1,1-.1,1.4,0Z"/>
        <path class="cls-17" d="M58.12,110.03c.4,2.2,5,6,.9,6.9-1.2-1.8-4.5-6.5-.9-6.9Z"/>
        <path class="cls-29" d="M101.12,77.03c1.1,1.2,2.1,2.8,3.2,4.1-7.6.2-12.3-5-13-5-4.8,5.6-19.5-14.5-25.4-17.8,3.8-1.9-5.4-17.1,3.4-11,1.3,1.2,1.2,9.1,1.6,3,7.2,1.5,4.5,7.4,5.3,7.5.7-5.5,5.9-.8,6.4,3.7,2-2.4,6.3,2.9,5.9,5.5,2.1-2,9,6,12.6,10Z"/>
        <path class="cls-29" d="M65.52,47.33c5,21.2-4.4,2.8-11.4,9.1-1.9,1.2-3.4-1.9-3.7.5-3-4.3,0-8.2-2.7-19.2.2-8.4-1.6-4.5,6.9-.2,2,10.7.1,2.3,2.1,1.6,4.7-1.6,4.4,15.6,5.5,3.7,2.1.8,2.5,2.2,3.3,4.5Z"/>
        <path class="cls-35" d="M47.62,37.73c1.9,8,1.2,15.6,1.4,16.5-9.2-3.8-6.9-17.7-9.4-25.2,5.1,1.4,7.5,3.1,8,8.7Z"/>
        <path class="cls-33" d="M65.92,58.33c3.3,2.4,24.7,22.1,9.4,12.4-12.7-2.8-18.8-18.6-9.4-12.4Z"/>
        <path class="cls-14" d="M44.42,51.43q5.9,17.2,11.9,34.3c-5-6.1-14.1-29.5-12.8-36.6.2.7.4,1.8.9,2.3Z"/>
        <path class="cls-33" d="M61.82,56.53q.5,3.9.9,7.8c-7.8-3-14-12.6-.9-7.8Z"/>
        <path class="cls-30" d="M54.02,56.53c-2.2,1.8-.9,6.6-3.7.5.3-2.4,1.8.6,3.7-.5Z"/>
        <g>
          <path class="cls-27" d="M71.42,160.83c8.9,23.3-11.6-17-11.9-23.3,4.1,7.6,8.2,15.4,11.9,23.3Z"/>
          <path class="cls-12" d="M66.82,149.83c1.7,3.4,5.1,8.5,4.6,11-5.2-12.8-16.1-23.5-11.4-38,1.2,9.8.7,18.5,6.8,27Z"/>
          <path class="cls-12" d="M60.02,122.83c-2,3.5.4,8.7-1.4,11-1.1-3-2-6.1-3.2-9.1.8.4,1.4-1.7,1.4-1.8.7,1.8,3.4-5.4,3.2-.1Z"/>
          <path class="cls-41" d="M56.82,122.83c-1.6,4.7-3.1-1.5-.5-3.2.3,1.2.6,1.9.5,3.2Z"/>
          <path class="cls-23" d="M60.02,116.83c1.2.3,3,5.6,3.7,6.9-3.6,5.8,7.6,26.7,3.2,26.1-6.6-8.9-5.6-18.6-7.1-28.8-4,2.8-2.3,3.3-3.4-1.8,1.3.2.8-.8.9-.9.6-.6,1.8-1.8,2.7-1.5Z"/>
          <path class="cls-24" d="M71.02,129.73c1.6,2.6,4.5,8.7,7.3,8.2-9.4,2.9-.7,24.1-3.7,29.3-1.5-10.6-1.3-20.6-5-31.3-1.5-2.9-4.8-8.5,1.4-6.2Z"/>
          <path class="cls-48" d="M67.82,129.23c2,11.6,7.8,23.4,5.9,36.1-2.6-4.9-3.1-9.9-6.9-15.6,4.4.7-6.8-20.3-3.2-26.1,1.5,2.7,1.4,4.6,4.2,5.6Z"/>
          <path class="cls-16" d="M65.02,117.33c-1.4,2.6,5.2,8.4,5.9,12.4-8,2.8-15.5-28.2-5.9-12.4Z"/>
        </g>
        <g>
          <path class="cls-25" d="M123.12,124.23c13.3,15.5,19.6,35.9,35.2,47.6-20.7-9.1-24-32-37.1-48,.8-.1,1.2.2,1.9.4Z"/>
          <path class="cls-48" d="M134.12,128.73c22.2,12.1,15.8,23.8,24.7,41.2-10.7-6.2-14.3-10.8-20.1-21,.7-1.7,2.6.9,2.3-1.6-.1-.5-5.4-9.2-5.9-6.2-3.6-6.2-6.1-12.1-11.9-16.9,3.4.6,7.8,2.8,10.9,4.5Z"/>
          <path class="cls-48" d="M138.72,148.93c-1.4-2.4-2.3-5.4-3.7-7.8.5-3,5.9,5.7,5.9,6.2.4,2.5-1.5-.2-2.2,1.6Z"/>
        </g>
        <g>
          <path class="cls-13" d="M99.82,136.13c11.6,6,27.7,8.5,37.1,14.6-15.4-2.2-19.8-6.1-37.5-11.4-.3-.1-4.6-4.4-5.5-.9-3-.9-4.3-.4-3-1.8-5.1-1.7-11.9-4.4-16.7-6.9-.5-6.3,20.8,6.2,25.6,6.4Z"/>
          <path class="cls-12" d="M93.82,138.33c5.9,1.2,23.6,5.4,23.3,7.8-8.6-2.4-29.9-10.4-37.5-8.7-1.1-1.2,1.2-1.1,1.4-1.6.3-1-7.8-2.6-5.9-5.7,4.4,2.2,11,4.9,15.8,6.4-1.4,1.4-.1.9,2.9,1.8Z"/>
          <path class="cls-23" d="M70.52,123.73c.9,6.5,1.7,4.6,4.6,6.4-1.8,3.1,6.3,4.7,5.9,5.7-.2.5-2.5.4-1.4,1.6-5.7,2.4-9.3-10.2-11.9-14.2,1.8-.2,2.4.4,2.8.5Z"/>
          <path class="cls-32" d="M113.02,137.43c7.1,3.7,18.9,2.8,22.4,10.5-8.7-4.5-35.8-7.4-36.6-15.1,4.8,1.6,9.5,3.1,14.2,4.6Z"/>
          <path class="cls-38" d="M98.92,132.93c0,1.5-.4,2.3.9,3.2-4.8-.2-26-12.7-25.6-6.4-2.2-1.3-2.8-.1-3.7-5.9,9.7,2.5,18.9,5.9,28.4,9.1Z"/>
          <path class="cls-37" d="M135.52,148.03c.1.1-.1.3,0,.5-9.6-.9-21.8-7.6-31.6-10.5q15.8,4.9,31.6,10Z"/>
          <path class="cls-28" d="M99.32,139.33c-.7,0-5.2-.8-5.5-.9.9-3.5,5.2.7,5.5.9Z"/>
          <path class="cls-37" d="M127.22,132.43c.1.2.5.2,2.3,3.2-2.7.4-19.5-4.2-20.4-3.7-2.2,4.6,24.8,4,23.6,10.1-26.6-5.4-56.9-16.8-5.5-9.6Z"/>
          <path class="cls-31" d="M129.52,135.63c.6.9.9,1.9,1.4,2.7-23.4-3-32.9-9.8-1.4-2.7Z"/>
          <path class="cls-36" d="M132.72,142.03c.8,1.5.9,2.2.9,2.3-6.8-2.4-13.7-4.6-20.6-6.9,5.9-1.2,14.4,4.6,19.7,4.6Z"/>
          <path class="cls-38" d="M99.32,128.73c-.2,1.3-.5,2.9-.5,4.1-45.2-14.1-43.8-18.8.5-4.1Z"/>
        </g>
        <g>
          <path class="cls-17" d="M53.12,16.23c18,9,34.4,27.6,51,39.3,27.1,19.2,23.6,22.4,60.2,47.6,19.8,13.6,120.9,139.4,49,80.9-7.5-6.1-40-27.5-46.8-24.2-14.8,7.2-28.3-34.3-45.3-36.1-4.8-2.2-15.1-41.7-7.3-34.3,1.2,2.9,10.8,18,12.6,18.3,6.5,1.3-8.9-18-9.8-19.4-14.9-26.3-52.1-60.8-82.3-68.4,2.5-11.5,10.1-8.2,18.7-3.7Z"/>
          <g>
            <path class="cls-26" d="M114.02,89.43c-.8-2.6-1.3-6.4-2.3-8.7,2.7-.2,3.8,5.5,5,7.5.9,1.4,16.4,20.7,9.8,19.4-1.7-.3-11.4-15.3-12.5-18.2Z"/>
            <path class="cls-26" d="M153.32,133.33c8.5,1.2,9.5,1.7,3.2-7.5-2.9-16.7-20.3-24.1-24.2-14.4,3.9-35.9,65.2,69.4,21,21.9Z"/>
            <path class="cls-19" d="M166.12,159.43c-21-.6-8.4-20.4-32-30.7,8.3.5,27,24.4,32,30.7Z"/>
            <path class="cls-26" d="M184.62,138.83c1.3-.2,17.6,21.6,6.9,20.6-3.8-.4-9.3-20.2-6.9-20.6Z"/>
            <path class="cls-45" d="M166.62,159.83c-.1,1-1.3.5-.5-.5,0,.1.5,0,.5.5Z"/>
            <g>
              <path class="cls-47" d="M153.32,133.33c-47.4-22.9-2.5-44.8,7.1.9-2.1-.5-6.3-.7-7.1-.9Z"/>
              <path class="cls-21" d="M142.32,112.73c-3.5,5.9,9,13.7,6.4,2.7,1.7-4.9,4.1,12-4.8,11-.8-.1-7.8-3.5-5.7-5,4.2,2,5,.2-1.8-2.7-6.2-8.6-2.3-5.3,5.9-6Z"/>
              <path class="cls-46" d="M148.72,115.53c2.1,7.2-3.8,6.5-5.9,2.7.7-1.7,1.9-10.1,5.9-2.7Z"/>
              <path class="cls-6" d="M146.02,112.33c-4.6,3.2-1.5,4.4-3.2,5.9-1.8-2.6-1.4-7.5,3.2-5.9Z"/>
              <path class="cls-24" d="M138.22,121.43c-1.4-.7-1.3-2-1.8-2.7,6.8,2.9,6,4.8,1.8,2.7Z"/>
            </g>
          </g>
        </g>
      </g>
    </g>
  </g>
</svg>